<svg width="110" height="110" viewBox="0 0 110 110" fill="none" xmlns="http://www.w3.org/2000/svg">
<circle cx="55" cy="55" r="54" fill="#FFF2F6" stroke="#F74070" stroke-width="2" stroke-dasharray="8 4"/>
<path d="M64.6842 80.5212C64.402 80.1746 64.0969 79.9378 63.6191 79.8762C63.3472 79.8406 63.0998 79.6438 62.8326 79.5406C62.4663 79.3984 62.1006 79.2402 61.7182 79.156C61.3421 79.0734 61.0432 78.9427 60.8528 78.6002C60.7703 78.4514 60.636 78.3217 60.5 78.2121C60.2603 78.0168 60.1441 77.7789 60.1467 77.4809C60.154 76.7808 60.0793 76.0692 60.1893 75.3846C60.3236 74.5463 60.3418 73.7135 60.3179 72.8757C60.2334 69.9371 60.4284 67.014 60.7672 64.0949C60.871 63.197 61.1895 62.3236 61.0827 61.3992C61.0349 60.984 61.0603 60.5603 61.0692 60.1407C61.1107 58.114 60.9742 56.0793 61.2471 54.0616C61.506 52.1461 61.5102 50.2251 61.5024 48.3011C61.5019 48.1268 61.52 47.952 61.5319 47.7778C61.6632 45.9644 61.7939 44.1506 61.9267 42.3372C61.9345 42.2321 61.948 42.1284 61.9605 42.0242C62.1841 40.2529 62.39 38.4817 62.3532 36.6909C62.3418 36.0984 62.4025 35.5025 62.4622 34.9116C62.5836 33.6926 62.7408 32.4782 62.858 31.2593C62.9851 29.9352 63.0738 28.6087 63.1994 27.2846C63.2564 26.6801 63.1553 26.0992 63.0033 25.5213C62.941 25.2859 62.8487 25.0521 62.5286 25C62.4445 25.0416 62.3127 25.0646 62.2609 25.1397C61.7213 25.9214 61.0655 26.6291 60.6842 27.5124C60.4616 28.0283 60.1737 28.508 59.7472 28.9126C59.5236 29.125 59.3452 29.4159 59.2419 29.7039C59.0697 30.1841 58.774 30.5552 58.4072 30.9058C57.6871 31.5954 56.8751 32.2349 56.3221 33.0371C55.7312 33.894 54.7714 34.2911 54.1198 35.0368C54.0731 35.0903 54.0212 35.1404 53.9657 35.185C53.6601 35.4304 53.369 35.6963 53.0432 35.9146C51.9117 36.6733 50.775 37.4245 49.6274 38.1602C48.9312 38.6069 48.2137 38.998 47.3244 38.9774C46.4591 38.9569 46.071 39.8648 46.3283 40.4823C46.5545 41.0237 46.9602 41.5034 47.5501 41.5845C48.2915 41.6862 49.0941 41.7248 49.8085 41.552C50.4103 41.4063 50.9893 41.2766 51.6067 41.2746C51.7857 41.2741 51.9792 41.2645 52.1416 41.2009C53.1766 40.7948 54.2749 40.5284 55.2176 39.9149C55.3659 39.8183 55.5377 39.7502 55.7058 39.6896C55.8832 39.626 56.0285 39.3846 56.2396 39.5483C56.1711 39.983 56.1156 40.3927 56.0393 40.7983C55.9885 41.0687 55.8977 41.3316 55.8443 41.6016C55.7701 41.9767 55.6461 42.3578 55.6632 42.7308C55.7161 43.8236 55.1496 44.8366 55.2575 45.9324C55.2668 46.0255 55.1999 46.1347 55.1454 46.2243C54.9327 46.5739 54.9301 46.9575 54.9317 47.3446C54.9348 48.0096 54.9296 48.6747 54.9338 49.3397C54.9369 49.7964 54.9006 50.2326 54.7195 50.6738C54.5784 51.0184 54.555 51.423 54.5483 51.8021C54.5275 52.9564 54.5467 54.1122 54.5364 55.267C54.5338 55.5785 54.5535 55.9201 54.4342 56.1955C54.1727 56.7989 54.1416 57.4159 54.1441 58.0484C54.1452 58.2923 54.1722 58.5567 54.0886 58.777C53.7156 59.7601 53.81 60.7777 53.7877 61.7893C53.7794 62.1709 53.7939 62.576 53.6694 62.9276C53.4287 63.6086 53.4028 64.2972 53.4095 64.9988C53.4163 65.6288 53.4043 66.2588 53.4126 66.8888C53.4199 67.4166 53.3571 67.9249 53.202 68.4387C53.0733 68.8674 53.0355 69.3321 53.0313 69.7818C53.0131 71.6022 53.0251 73.4225 53.022 75.2424C53.0214 75.5213 53.0381 75.8093 52.9779 76.0787C52.7418 77.1294 52.4783 78.175 52.224 79.2236C51.2751 79.778 50.2422 80.076 49.1942 80.3279C48.8191 80.4175 48.5286 80.5998 48.3257 80.9073C48.1447 81.1812 48.0669 81.4737 48.2375 81.8132C48.7117 81.8593 49.1792 81.8798 49.6373 81.9544C50.6059 82.1117 51.5755 82.1618 52.5592 82.1618C53.4246 82.1618 54.2905 82.2875 55.1537 82.3751C56.2406 82.4858 57.3384 82.5569 58.4072 82.3596C60.5312 81.967 62.6635 82.1412 64.913 82.1242C64.94 81.979 64.9758 81.8443 64.9887 81.708C65.0323 81.2799 64.9794 80.8832 64.6842 80.5212Z" fill="#F74070"/>
<path fill-rule="evenodd" clip-rule="evenodd" d="M52.6422 45.2227C52.7802 45.5031 52.9706 45.7004 52.9374 45.8521C52.6713 47.0645 52.8715 48.2955 52.7506 49.5114C52.6531 50.4849 52.5374 51.4574 52.4741 52.433C52.2842 55.332 51.8899 58.209 51.534 61.0906C51.4998 61.368 51.4702 61.6495 51.4811 61.9274C51.5439 63.5094 51.3395 65.0683 51.0842 66.6243C50.9255 67.5943 50.8658 68.5703 50.9026 69.5524C50.926 70.1844 50.8471 70.8023 50.7216 71.4263C50.5499 72.2781 50.4575 73.1455 50.347 74.0079C50.2759 74.5652 50.058 74.8552 49.7016 74.8111C49.3872 74.7731 49.2342 74.5287 49.2082 73.9888C49.1963 73.7449 49.1818 73.4956 49.2202 73.2567C49.3462 72.4649 49.4982 71.6782 49.6347 70.8885C49.6762 70.6481 49.74 70.4022 49.7244 70.1623C49.6025 68.2258 49.9766 66.3293 50.1992 64.4208C50.2438 64.0392 50.3273 63.6546 50.3112 63.2745C50.2453 61.7626 50.4544 60.2718 50.6484 58.7799C50.9914 56.1428 51.3052 53.5037 51.4635 50.8485C51.4759 50.6402 51.493 50.4278 51.5403 50.2245C51.7384 49.3672 51.8531 48.5013 51.8406 47.6239C51.8303 46.9068 52.072 46.2493 52.3164 45.5912C52.3486 45.5036 52.4477 45.438 52.6422 45.2227Z" fill="#080D26"/>
<path fill-rule="evenodd" clip-rule="evenodd" d="M44.3044 82.7177C44.39 82.8038 44.4305 82.88 44.4907 82.9C45.6512 83.2881 46.8144 83.6692 48.0642 83.6742C49.0416 83.6777 50.019 83.6792 50.996 83.6802C51.5013 83.6807 51.9973 83.6041 52.4974 83.5445C53.6014 83.4138 54.7163 83.3402 55.812 83.7413C56.4413 83.9712 57.0904 84.2146 57.8053 84.1329C58.3568 84.0693 58.6982 84.4509 59.094 84.6988C58.9612 85.0223 58.7044 85.0308 58.5295 84.9717C58.0341 84.805 57.5288 84.8666 57.0281 84.824C56.5306 84.7814 56.0289 84.6823 55.5506 84.5406C54.5788 84.2511 53.6102 84.3413 52.6613 84.5591C52.1602 84.6743 51.6714 84.7384 51.1646 84.7374C50.4766 84.7359 49.7845 84.6893 49.1018 84.7489C47.2491 84.9076 45.521 84.3888 43.7872 83.8991C43.0219 83.6827 42.8014 83.1213 43.1838 82.4328C43.3358 82.1593 43.5366 81.9089 43.7373 81.665C43.9843 81.3671 44.251 81.0841 44.5171 80.8012C44.6375 80.6735 44.7635 80.5443 44.9088 80.4461C45.4105 80.1041 45.9205 79.7741 46.4294 79.4421C46.6095 79.3249 46.6121 79.3284 47.0395 79.5758C46.5617 80.053 46.0886 80.5132 45.63 80.9865C45.1163 81.5168 44.6795 82.1022 44.3044 82.7177Z" fill="#080D26"/>
<path fill-rule="evenodd" clip-rule="evenodd" d="M52.031 43.1965C51.9133 43.3628 51.8603 43.494 51.7613 43.5671C51.2056 43.9788 50.609 44.2337 49.8702 44.2126C48.388 44.1696 46.9037 44.1751 45.4209 44.1951C44.6417 44.2051 44.0445 43.823 43.4386 43.4494C43.1823 43.2912 43.0733 43.0153 43.064 42.7243C43.0432 42.0948 43.2352 41.548 43.8085 41.1919C43.9014 41.1343 44.0762 41.1508 44.1888 41.1934C44.2412 41.2134 44.2692 41.3857 44.2474 41.4748C44.1831 41.7438 44.0637 42.0022 44.0155 42.2726C43.9864 42.4333 44.0502 42.6096 44.07 42.7609C44.6318 43.196 45.2243 43.3533 45.9102 43.3333C47.2113 43.2947 48.5141 43.3192 49.8168 43.3037C50.1379 43.2997 50.4637 43.2672 50.7781 43.2041C51.1693 43.1264 51.5496 43.1259 52.031 43.1965Z" fill="#080D26"/>
<path fill-rule="evenodd" clip-rule="evenodd" d="M59.9683 39.1992C60.0694 40.4587 59.9652 41.7086 59.8406 42.9626C59.5361 46.0219 58.9374 49.0522 58.8783 52.136C58.8689 52.6223 58.7558 53.105 58.7148 53.5908C58.6536 54.3214 58.5877 55.0526 58.5737 55.7847C58.5597 56.5219 58.4923 57.244 58.32 57.9657C58.2157 58.4028 58.2344 58.8656 58.1737 59.3143C58.1275 59.6578 58.0762 60.0064 57.9615 60.3314C57.9185 60.4536 57.6954 60.5783 57.547 60.5873C57.3971 60.5963 57.1973 60.4971 57.0946 60.3825C56.9857 60.2613 56.9281 60.0695 56.912 59.9032C56.8425 59.1711 56.843 58.4439 56.9919 57.7128C57.1174 57.0998 57.1989 56.4713 57.2196 55.8473C57.2508 54.9033 57.2632 53.9619 57.4801 53.0339C57.5356 52.798 57.5397 52.5487 57.547 52.3048C57.6103 50.1008 57.8438 47.9144 58.1867 45.734C58.6318 42.898 58.8575 40.0425 58.8425 37.1715C58.8404 36.7874 58.8352 36.4003 58.8767 36.0197C58.9032 35.7848 58.9893 35.5465 59.0977 35.3326C59.2144 35.1018 59.6134 35.1183 59.7166 35.3622C59.823 35.6151 59.9112 35.8905 59.9273 36.1604C59.9662 36.7879 59.9595 37.4179 59.9667 38.0469C59.9719 38.431 59.9683 38.8151 59.9683 39.1992Z" fill="white"/>
<path fill-rule="evenodd" clip-rule="evenodd" d="M57.2059 76.94C56.9766 77.2425 56.8713 77.3812 56.767 77.5209C56.5756 77.7763 56.3193 77.8705 56.0065 77.7863C55.6692 77.6957 55.4223 77.5014 55.3621 77.1518C55.3087 76.8418 55.2397 76.5278 55.2423 76.2164C55.2594 74.2237 55.2775 72.2311 55.3362 70.2395C55.3491 69.7963 55.5079 69.3531 55.6355 68.9204C55.6672 68.8137 55.8529 68.6665 55.9473 68.6795C56.1014 68.7006 56.3126 68.8052 56.3701 68.9304C56.6098 69.4457 56.6814 70.0011 56.683 70.5665C56.6892 72.2797 56.7037 73.9934 56.7146 75.7071C56.7183 76.1588 56.6321 76.6335 57.2059 76.94Z" fill="white"/>
<path fill-rule="evenodd" clip-rule="evenodd" d="M56.6885 63.1338C57.0838 63.1984 57.3795 63.3987 57.5263 63.7302C57.6597 64.0302 57.6182 64.3582 57.3582 64.5946C57.1518 64.7819 56.9183 64.9541 56.6682 65.0798C56.2485 65.2902 55.6892 64.9531 55.6384 64.4854C55.585 63.9921 55.9206 63.4232 56.3938 63.2184C56.4892 63.1769 56.5966 63.1593 56.6885 63.1338Z" fill="white"/>
</svg>
