<svg width="110" height="110" viewBox="0 0 110 110" fill="none" xmlns="http://www.w3.org/2000/svg">
<circle cx="55" cy="55" r="54" fill="#FFF2F6" stroke="#F74070" stroke-width="2" stroke-dasharray="8 4"/>
<path fill-rule="evenodd" clip-rule="evenodd" d="M62.5219 62.3533C62.3876 63.3024 62.4109 76.8227 62.5316 78.2504C63.2404 78.4297 63.9695 78.6581 64.7165 78.7923C65.8669 78.9987 65.9999 79.1144 66.0881 80.365C65.6948 80.7481 65.2107 80.9219 64.652 80.9055C63.5885 80.8728 62.5268 80.8496 61.4628 80.783C59.0945 80.6333 56.7046 80.4806 54.4148 81.3837C53.9631 81.5618 53.4672 81.6362 52.9896 81.7501C52.6736 81.825 52.4221 81.7222 52.2623 81.4426C52.0942 81.1485 52.1517 80.7417 52.4392 80.5813C52.861 80.3465 53.3008 80.0549 53.7617 79.993C54.8699 79.8433 55.5924 79.1372 56.3232 78.4474C56.7704 78.0246 56.784 77.4264 56.6357 76.8605C56.4447 76.1277 56.1862 75.4104 56.0045 74.6759C55.9189 74.3305 55.922 73.9594 55.9207 73.5995C55.9132 71.9915 55.9242 70.3836 55.9158 68.7761C55.9141 68.417 55.9466 68.0256 55.8188 67.7044C55.4493 66.7733 55.4826 65.8139 55.4826 64.8506C55.4831 64.2954 55.4673 63.7411 55.4594 63.2044C54.5157 63.0564 53.1871 63.0629 52.484 63.2822C51.7637 63.5067 51.04 63.5407 50.2973 63.505C49.3958 63.4615 48.4952 63.422 47.6217 63.7471C47.4014 63.8292 47.135 63.8215 46.8914 63.8146C44.5546 63.7475 42.2178 63.677 39.8811 63.591C39.6015 63.5807 39.3092 63.5131 39.0524 63.4048C38.5705 63.2014 38.4686 62.8345 38.6403 62.3185C38.9251 61.4597 39.3131 60.6951 40.1756 60.2362C40.3718 60.1313 40.5425 59.8943 40.6241 59.681C40.837 59.1314 41.2391 58.7388 41.6494 58.3444C42.1173 57.8942 42.5953 57.4516 42.878 56.8526C42.9284 56.7451 43.0026 56.6427 43.086 56.5559C44.4673 55.1143 45.4794 53.3959 46.75 51.8718C46.9831 51.5927 47.1938 51.2929 47.3895 50.9867C49.5042 47.6853 51.6408 44.3959 53.7116 41.0681C54.435 39.9057 55.0108 38.6539 55.6262 37.4291C56.1327 36.4211 56.5944 35.3907 57.0851 34.374C57.8032 32.8861 58.5326 31.4029 59.2489 29.9136C59.3525 29.6977 59.4223 29.4625 59.4825 29.2303C59.6681 28.5241 59.9249 27.8623 60.3971 27.2753C60.6148 27.0048 60.7127 26.6328 60.8303 26.2956C60.9923 25.835 61.1898 25.4007 61.5651 25.0661C61.7099 24.9367 62.033 25.0072 62.0755 25.1917C62.1383 25.4618 62.2309 25.7495 62.1927 26.0131C61.9768 27.4985 62.0975 28.9838 62.1458 30.4684C62.4438 39.6318 62.345 48.7974 62.3806 57.9625C62.3823 58.4373 62.4039 58.9121 62.4183 59.4415C62.7221 59.4892 62.9543 59.5537 63.1864 59.5576C64.0893 59.5705 64.9917 59.5799 65.8941 59.5567C66.2571 59.5477 66.617 59.4488 66.9795 59.395C67.6116 59.3008 68.1058 58.9929 68.5456 58.5392C68.9941 58.0778 69.5015 57.6705 69.9865 57.2435C70.2529 57.0087 70.6335 57.0956 70.8024 57.4301C71.014 57.8473 71.0816 58.3242 70.8665 58.7112C70.5501 59.2793 70.5619 59.8603 70.5492 60.4615C70.5154 62.0136 70.4759 62.2497 68.5947 62.3576C67.001 62.4488 65.3964 62.3619 63.7956 62.355C63.3918 62.3516 62.9859 62.3533 62.5219 62.3533ZM55.0806 45.3351C54.8216 45.649 54.6167 45.8761 54.4363 46.1208C53.2367 47.7481 52.0477 49.3818 50.8433 51.0057C50.5554 51.394 50.2561 51.7845 49.9067 52.1178C49.2259 52.7667 48.6545 53.4948 48.1216 54.2585C47.3821 55.3186 46.6491 56.3838 45.8946 57.434C45.5189 57.9569 45.1063 58.4558 44.7008 58.9577C44.3575 59.383 44.0248 59.8092 43.8695 60.4581C44.5866 60.3996 45.2121 60.4241 45.7967 60.2848C46.8023 60.0444 47.8069 59.9339 48.8375 59.9704C49.6161 59.9979 50.3838 59.9515 51.1488 59.7399C51.6136 59.6113 52.1197 59.61 52.6086 59.5872C53.1814 59.561 53.7564 59.5877 54.3292 59.5632C54.5592 59.5533 54.7856 59.469 55.0683 59.4062C55.121 54.8241 55.1741 50.2909 55.221 45.7582C55.2206 45.6572 55.1552 45.5557 55.0806 45.3351Z" fill="#F74070"/>
<path fill-rule="evenodd" clip-rule="evenodd" d="M35.1685 61.399C34.8827 60.9273 34.9964 60.5579 35.2422 60.2169C35.4314 59.9558 35.6447 59.7081 35.8707 59.4767C36.6639 58.6644 37.4618 57.8559 38.2676 57.0564C39.3044 56.0286 40.374 55.0335 41.279 53.8836C41.6016 53.4729 42.0304 53.1439 42.3833 52.7538C43.0878 51.9737 43.8524 51.2284 44.4506 50.3744C45.45 48.947 46.542 47.5963 47.6726 46.273C48.0462 45.8357 48.3178 45.3557 48.5597 44.841C48.7967 44.3357 49.1075 43.8617 49.4024 43.3844C49.7202 42.8705 50.1275 42.3987 50.3698 41.8539C50.8425 40.7921 51.4605 39.8051 51.8779 38.7063C52.3146 37.5543 52.9594 36.4723 53.6937 35.4401C54.4367 34.3943 55.0157 33.2306 55.61 32.0905C55.9984 31.3457 55.9532 31.3229 56.6072 30.8451C56.6291 30.8791 56.6783 30.9242 56.6695 30.9453C56.0682 32.346 55.4656 33.7462 54.8533 35.1421C54.7729 35.3245 54.6619 35.5003 54.5342 35.6543C53.8284 36.5045 53.3754 37.4958 52.8869 38.4672C52.8329 38.5752 52.7588 38.6797 52.7324 38.7945C52.4555 39.9849 51.7822 40.9946 51.2177 42.0573C50.8394 42.769 50.4953 43.491 50.0055 44.1439C49.7434 44.4935 49.5547 44.9076 49.398 45.317C49.1935 45.852 48.9104 46.3281 48.5487 46.7714C47.4233 48.1519 46.3063 49.5379 45.3547 51.0435C45.2042 51.2813 45.0225 51.5028 44.8373 51.7161C41.9918 54.9845 39.1169 58.2257 35.7755 61.0296C35.6034 61.1741 35.3871 61.2679 35.1685 61.399Z" fill="#080D26"/>
<path fill-rule="evenodd" clip-rule="evenodd" d="M51.3711 84.1525C51.6748 83.9805 51.7999 83.8618 51.9395 83.8399C52.464 83.7616 52.9929 83.71 53.5213 83.6576C53.8461 83.6249 54.2003 83.679 54.4935 83.5707C55.2484 83.2929 56.0218 83.3342 56.7965 83.3294C58.1479 83.3213 59.5015 83.3733 60.8481 83.2985C62.052 83.2314 63.1871 83.584 64.359 83.6894C64.8435 83.7337 65.3224 83.8321 65.8047 83.9035C65.8855 83.916 65.9689 83.9096 66.0496 83.9212C66.4561 83.9797 66.7247 84.2308 66.6887 84.5155C66.6567 84.7662 66.41 85.0006 66.0773 85.0002C65.5905 85.0002 65.0968 84.9847 64.6197 84.9017C63.7787 84.755 62.9505 84.54 62.1122 84.3805C61.8348 84.3276 61.5416 84.3534 61.255 84.3529C59.9452 84.3491 58.6351 84.3461 57.3254 84.3478C56.4287 84.3486 55.5447 84.3886 54.6467 84.5353C53.7785 84.6763 52.859 84.5258 51.9632 84.4781C51.821 84.4708 51.6858 84.3314 51.3711 84.1525Z" fill="#080D26"/>
<path fill-rule="evenodd" clip-rule="evenodd" d="M46.5822 65.0533C47.1533 65.0533 47.7256 65.0545 48.2966 65.0528C48.8273 65.0511 49.3413 65.0748 49.8618 65.2493C50.5254 65.4721 51.2273 65.4945 51.8979 65.2158C52.3127 65.0434 52.6967 65.1225 53.0755 65.3053C53.2954 65.4115 53.3283 65.8063 53.1137 65.9112C52.5361 66.1933 51.9756 66.5309 51.2848 66.4952C50.5974 66.4599 49.9035 66.5606 49.232 66.2797C48.984 66.1757 48.6697 66.2139 48.3853 66.2079C47.4056 66.186 46.4247 66.1817 45.4446 66.1546C44.5457 66.1297 43.6512 66.1013 42.769 66.343C42.4099 66.441 42.0347 66.432 41.7002 66.2372C41.6076 66.183 41.4816 66.0479 41.4974 65.9791C41.5299 65.8445 41.6309 65.7065 41.7424 65.6158C41.8262 65.5469 41.9715 65.5495 42.0887 65.5194C43.5634 65.1431 45.0724 65.1126 46.5822 65.0533Z" fill="#080D26"/>
<path fill-rule="evenodd" clip-rule="evenodd" d="M53.7323 69.3379C54.162 69.712 54.1927 70.1103 54.1993 70.5033C54.2278 72.3082 54.241 74.1131 54.2721 75.9176C54.2805 76.3885 54.1075 76.7893 53.8051 77.1213C53.7029 77.234 53.44 77.2705 53.271 77.2383C53.1595 77.2168 53.0585 77.0202 53.0028 76.8822C52.962 76.7803 52.9602 76.6246 53.0124 76.5308C53.3456 75.9318 53.249 75.2833 53.2618 74.6481C53.2868 73.4448 53.292 72.2411 53.3324 71.0392C53.3473 70.6009 53.429 70.164 53.4992 69.7301C53.5159 69.626 53.6124 69.534 53.7323 69.3379Z" fill="#080D26"/>
<path fill-rule="evenodd" clip-rule="evenodd" d="M59.8886 68.4309C59.8886 69.4747 59.8952 70.5184 59.8843 71.5621C59.8821 71.8399 59.8562 72.125 59.7864 72.3934C59.7205 72.6475 59.5015 72.7856 59.2303 72.7787C58.9625 72.7714 58.7413 72.6368 58.6974 72.371C58.6386 72.0167 58.6127 71.6541 58.6105 71.2959C58.6031 69.5693 58.6101 67.8435 58.6092 66.1173C58.6079 65.4761 58.6013 64.8448 58.4108 64.2113C58.2748 63.7593 58.2616 63.2592 58.2664 62.781C58.316 56.6395 58.3753 50.4976 58.4464 44.3565C58.453 43.8404 58.5539 43.3235 58.6364 42.8109C58.65 42.7232 58.8146 42.5761 58.866 42.592C58.9977 42.632 59.1877 42.7339 59.2075 42.838C59.2965 43.3072 59.3769 43.7863 59.3848 44.2627C59.455 48.196 59.5182 52.1292 59.5625 56.0628C59.5889 58.3107 59.5656 60.5594 59.5915 62.8068C59.5981 63.3211 59.7214 63.8333 59.7824 64.3481C59.825 64.705 59.8764 65.0628 59.8816 65.4206C59.8948 66.4239 59.8864 67.4276 59.8864 68.4314C59.8878 68.4309 59.8886 68.4309 59.8886 68.4309Z" fill="white"/>
<path fill-rule="evenodd" clip-rule="evenodd" d="M58.9313 39.867C58.9203 39.9878 58.9164 40.1065 58.8966 40.2226C58.847 40.5039 58.596 40.7352 58.3295 40.7567C58.0666 40.7782 57.773 40.5929 57.6861 40.3168C57.5922 40.0183 57.4816 39.7139 57.6663 39.4025C57.8169 39.1484 58.0104 38.9591 58.3317 38.9751C58.5859 38.988 58.8387 39.2391 58.8931 39.5169C58.9164 39.6326 58.9194 39.7517 58.9313 39.867Z" fill="white"/>
<path fill-rule="evenodd" clip-rule="evenodd" d="M59.8179 75.855C59.8258 76.1259 59.5725 76.3818 59.2771 76.4003C58.9695 76.4192 58.7109 76.2119 58.6824 75.9234C58.649 75.5811 58.9282 75.286 59.2679 75.3045C59.5453 75.3196 59.81 75.5845 59.8179 75.855Z" fill="white"/>
<path fill-rule="evenodd" clip-rule="evenodd" d="M53.5573 56.7994C53.4963 54.6135 53.2448 52.4142 53.1364 50.2361C53.1267 50.0473 52.8112 49.9828 52.7813 50.1892C52.4245 52.7222 52.852 55.3687 52.9099 57.9154C52.9183 58.2766 53.4647 58.3622 53.5595 58.0014C53.6526 57.6483 53.6583 57.3017 53.6767 56.9379C53.6807 56.8519 53.6232 56.8072 53.5573 56.7994Z" fill="#080D26"/>
</svg>
