<svg width="88" height="70" viewBox="0 0 88 70" fill="none" xmlns="http://www.w3.org/2000/svg">
<path d="M87.8354 21.3972C86.7381 12.2532 80.1365 4.02836 71.0146 1.98583C63.0298 0.197336 51.5602 2.50758 46.529 9.55902C46.5176 9.53738 46.5086 9.51459 46.4972 9.49408C44.3708 5.44093 40.1917 2.0667 35.3874 2.72628C35.0436 2.77413 34.7066 2.84135 34.3764 2.92451C34.3707 2.91995 34.3684 2.91425 34.3628 2.9097C29.6118 -0.764116 23.0112 -0.750453 17.7531 1.78419C13.0191 4.06595 6.74309 8.14872 5.942 13.8183C5.02743 13.9961 4.1957 14.3241 3.50013 14.8538C-0.362382 17.7952 -0.84463 24.5083 1.15584 28.5045C3.2017 32.5907 7.00861 35.9102 11.6268 35.6505C11.6404 35.7166 11.6541 35.7838 11.6915 35.8533C15.9421 43.6611 20.8474 50.6157 27.7032 56.3332C33.8828 61.4868 40.43 66.8842 47.9235 69.9451C48.4523 70.1604 49.0991 69.707 49.2307 69.2001C50.9623 62.5667 56.7276 59.0057 62.3569 55.9311C67.227 53.2711 72.0347 50.5485 76.2592 46.9009C83.5621 40.5956 89.0313 31.3638 87.8354 21.3972ZM44.5807 10.0546C47.0056 14.446 46.1965 19.0733 40.8237 20.2581C37.0395 21.092 33.0215 20.1316 29.4461 18.8854C29.3712 18.8592 29.3088 18.866 29.2396 18.8569C29.2453 17.7006 29.1068 16.5524 28.4657 15.641C27.9086 14.8493 27.061 14.339 26.1453 13.9813C28.1412 11.0411 29.538 7.75799 32.6823 5.8066C37.195 3.00539 42.2614 5.85559 44.5807 10.0546ZM39.5324 27.3835C41.4172 29.0103 42.9184 30.8535 44.1756 32.9416C38.72 32.7194 34.2357 29.843 30.0736 26.4506C29.5653 25.7682 29.0149 25.1223 28.3965 24.5436C28.9639 23.6129 29.083 22.4886 29.1284 21.2981C29.1341 21.1614 29.1432 21.0167 29.1511 20.8744C31.6066 21.8016 34.5159 22.5034 37.3765 22.5717C37.4185 22.713 37.5127 22.8497 37.6761 22.9602C39.8309 24.4149 42.3941 25.0266 44.7657 26.0507C43.2338 25.9949 41.7009 25.9323 40.1713 25.8366C39.4133 25.7887 38.9469 26.8778 39.5324 27.3835ZM19.69 16.9932C19.8409 16.4236 20.0508 15.8757 20.4741 15.4929C21.5123 14.5554 23.1485 14.9997 24.3082 15.3209C25.8832 15.7561 26.9702 16.1491 27.3503 18.0834C27.5024 18.8535 27.3322 19.8115 27.3254 20.5987C27.3152 21.7094 27.5194 23.1926 26.6661 24.0902C26.6514 24.1039 26.6366 24.1176 26.6219 24.1324C25.562 25.1884 24.0018 24.907 22.7877 24.4058C19.7093 23.1322 19.4279 20.6955 19.9952 17.695C20.0599 17.3612 19.9079 17.1185 19.69 16.9932ZM23.0351 26.9803C23.0941 26.7411 23.1497 26.5018 23.1883 26.2558C24.4966 26.5975 25.8741 26.4904 27.044 25.8092C29.9942 30.3693 32.0083 34.5649 31.9402 39.985C30.6421 38.8755 29.538 37.6098 28.5531 36.1586C28.2524 35.7154 27.7021 35.5297 27.2142 35.8066C26.0761 36.4513 25.8798 37.1223 25.1513 38.2524C24.458 39.3289 23.6648 40.2892 22.7957 41.1811C23.4152 36.4741 23.5865 31.6953 23.0351 26.9803ZM17.6702 3.83583C22.689 1.15878 27.6011 1.45725 32.5836 3.5761C28.7369 5.41586 26.0681 9.66266 24.6861 13.5279C24.4807 13.4789 24.2787 13.4333 24.0801 13.3923C21.4159 12.8398 18.7107 14.0234 18.2659 16.5125C15.4973 15.2332 11.2717 13.6452 7.73142 13.652C8.94554 9.04183 13.684 5.96151 17.6702 3.83583ZM2.23948 26.1954C1.01401 22.2493 2.70924 16.6537 7.19243 15.8836C10.5613 15.3049 15.2181 17.3794 18.4339 18.5106C18.4373 18.514 18.4384 18.5186 18.4418 18.522C17.8143 21.4713 18.8424 24.1574 21.4942 25.5837C21.4942 25.5905 21.4942 25.5962 21.4942 25.603C21.4068 25.7283 21.3353 25.8696 21.3126 26.0484C20.7872 30.1745 15.7197 33.2993 11.9139 33.7105C7.4727 34.1912 3.51034 30.2839 2.23948 26.1954ZM84.6775 31.4436C81.4606 41.1322 72.9822 47.6493 64.4186 52.4133C57.6865 56.1578 50.1441 59.7439 47.5434 67.4652C40.4493 64.4031 33.9985 59.1173 28.1582 54.1847C21.8357 48.8443 17.4739 42.326 12.9726 35.4762C16.2258 34.828 19.5981 32.9051 21.5668 30.1267C21.5656 34.5751 21.3183 38.9621 20.5433 43.4321C20.3731 44.4141 21.3784 44.9655 22.1387 44.3651C23.3573 43.4014 24.4693 42.3807 25.4497 41.1663C26.1271 40.3279 26.7285 38.9222 27.5444 38.0496C28.9196 39.8346 30.49 41.3577 32.3317 42.7076C32.9875 43.1884 33.7035 42.5151 33.7773 41.8749C34.2175 38.0575 33.6888 33.6729 32.0491 29.9079C36.0183 32.9996 40.5843 35.0821 45.9049 34.9499C46.706 34.9306 47.1031 34.1183 46.773 33.4326C45.7211 31.2499 44.3538 29.3783 42.6744 27.7367C44.5637 27.8085 46.4518 27.8985 48.34 27.9862C49.0752 28.0204 49.5893 26.9393 48.9765 26.4426C46.8297 24.7008 43.7456 23.1698 40.8271 22.3131C42.1536 22.0602 43.4222 21.6194 44.5716 20.937C48.0688 18.8649 48.5317 15.1956 47.4402 11.7474C47.5593 11.6687 47.6694 11.5617 47.7601 11.4147C52.7244 3.42461 66.9229 1.68393 74.7557 5.70064C84.0546 10.4681 87.9159 21.6889 84.6775 31.4436Z" fill="#FFD8E2"/>
<path d="M16.4832 20.1278C15.8239 19.8566 14.5996 19.4408 14.0595 20.0833C13.8892 20.285 13.8779 20.4889 13.9766 20.7236C14.2921 21.4743 15.6208 21.4526 16.3118 21.3968C17.063 21.3364 17.1538 20.4034 16.4832 20.1278Z" fill="#FFD8E2"/>
<path d="M16.8395 22.9284C16.0169 23.0149 15.2089 23.1744 14.4237 23.4421C13.7815 23.6608 12.7989 23.8967 12.6718 24.6679C12.6298 24.9219 12.6979 25.1919 12.9384 25.3252C13.6011 25.6943 14.2172 25.2375 14.8458 24.9766C15.5562 24.6815 16.2801 24.4298 17.0097 24.1871C17.6508 23.973 17.5941 22.8486 16.8395 22.9284Z" fill="#FFD8E2"/>
<path d="M18.603 26.3015C18.0254 26.911 17.087 27.566 16.9872 28.434C16.9474 28.7815 17.3412 28.9865 17.6271 28.9227C18.3885 28.7541 18.9615 27.7186 19.4449 27.1468C19.9362 26.5692 19.1397 25.7365 18.603 26.3015Z" fill="#FFD8E2"/>
<path d="M30.8735 11.8043C30.76 11.7508 30.6659 11.7178 30.5388 11.7132C30.3152 11.7052 30.0713 11.8442 29.9658 12.0436C29.7297 12.4901 29.4812 12.8353 29.0081 13.0438C28.5224 13.2568 28.8027 13.979 29.2634 13.9893C30.1575 14.0098 30.9779 13.4573 31.1788 12.5573C31.2389 12.2885 31.1447 11.9331 30.8735 11.8043Z" fill="#FFD8E2"/>
<path d="M34.5073 12.5575C32.9414 12.9869 31.4096 14.0133 29.9685 14.7538C29.4261 15.0329 29.8074 15.9909 30.3906 15.7597C31.885 15.1662 33.6812 14.6877 35.027 13.798C35.6522 13.3845 35.2721 12.3479 34.5073 12.5575Z" fill="#FFD8E2"/>
<path d="M33.9986 17.1528C33.6695 16.7392 33.2894 16.803 32.7878 16.7837C32.233 16.762 31.6792 16.7324 31.1255 16.7028C30.6115 16.6755 30.4855 17.5207 31.003 17.6153C31.5896 17.7235 32.1751 17.8328 32.7606 17.949C33.2757 18.0516 33.564 18.1279 34.0008 17.7873C34.2039 17.6278 34.1336 17.3225 33.9986 17.1528Z" fill="#FFD8E2"/>
<path d="M80.0988 34.9387C79.0515 36.8901 77.2825 38.4598 75.7461 40.0285C74.1552 41.6518 72.5088 43.2181 70.7886 44.7025C70.3041 45.1205 70.9475 45.9749 71.4785 45.6001C73.6809 44.0452 75.8153 42.3957 77.7613 40.5229C79.1116 39.2242 81.5728 37.3947 81.3583 35.2804C81.2948 34.663 80.4449 34.2939 80.0988 34.9387Z" fill="#FFD8E2"/>
<path d="M82.9635 28.63C82.4041 29.3226 81.9809 30.161 81.4748 30.9003C81.0504 31.52 81.8878 32.3346 82.5006 31.9302C83.4049 31.3355 84.2083 30.2852 84.2514 29.1654C84.2752 28.5491 83.38 28.114 82.9635 28.63Z" fill="#FFD8E2"/>
<path d="M21.0276 5.13789C19.835 5.29966 18.6243 5.92733 17.5577 6.47185C16.6477 6.93663 15.4301 7.37408 15.0773 8.40274C14.957 8.75475 15.2679 9.03157 15.5799 9.06574C16.549 9.1694 17.5293 8.28884 18.3599 7.85027C19.1678 7.42308 20.0484 7.0779 20.8574 6.6359C20.9255 6.62109 20.9924 6.5949 21.0514 6.54364C21.2001 6.44795 21.3487 6.35109 21.4974 6.2554C22.1771 5.92504 21.6472 5.05474 21.0276 5.13789Z" fill="#FFD8E2"/>
<path d="M13.5937 10.5061C13.1239 11.0187 12.4011 11.8252 12.754 12.5452C12.8402 12.7217 13.0626 12.7411 13.2192 12.6682C13.7321 12.4278 13.9216 11.6407 14.2994 11.2158C14.7283 10.7373 14.0316 10.0288 13.5937 10.5061Z" fill="#FFD8E2"/>
</svg>
