<svg width="110" height="110" viewBox="0 0 110 110" fill="none" xmlns="http://www.w3.org/2000/svg">
<circle cx="55" cy="55" r="54" fill="#FFF2F6" stroke="#F74070" stroke-width="2" stroke-dasharray="8 4"/>
<path d="M72.9657 39.4303C72.972 38.4691 72.9923 37.5074 72.5968 36.5943C72.5233 36.4247 72.5447 36.2168 72.5061 36.0297C72.4288 35.6553 72.4022 35.2551 72.2462 34.9154C71.749 33.8348 71.2037 32.7743 70.67 31.7107C70.6016 31.5763 70.502 31.445 70.3856 31.3488C69.3765 30.5127 68.8746 29.187 67.6463 28.564C67.6135 28.5479 67.5905 28.5097 67.5717 28.4766C67.1407 27.6979 66.3795 27.4037 65.5843 27.1938C65.0078 27.0413 64.4552 26.7993 64.0456 26.4187C63.3313 25.7538 62.5174 25.4917 61.5824 25.29C60.699 25.0992 59.8339 24.9932 58.9412 25.0046C58.2436 25.0134 57.5454 25.002 56.8473 25.0103C55.7302 25.0237 54.5917 24.8712 53.5372 25.4069C53.5044 25.4234 53.4616 25.4275 53.424 25.4265C52.7734 25.4069 52.2281 25.7129 51.674 25.987C50.8073 26.4156 49.947 26.8582 49.0751 27.2755C48.5366 27.533 48.079 27.8597 47.8061 28.4073C47.5755 28.8701 47.1941 29.1793 46.7501 29.4445C46.4595 29.6187 46.1913 29.8602 45.9779 30.1234C45.6638 30.5101 45.3789 30.9274 45.1316 31.3597C44.5508 32.3746 44.1579 33.4475 44.1799 34.6409C44.196 35.524 44.22 36.4102 44.1752 37.2918C44.1006 38.7524 44.7209 41.0745 45.6048 42.4194C46.0384 43.0786 46.58 43.4922 47.4117 43.4628C48.0702 43.4395 48.7354 43.3888 49.3876 43.4519C50.3936 43.5491 51.2884 43.2094 52.189 42.8759C52.6888 42.6908 52.9518 42.273 52.932 41.8144C52.9122 41.3584 52.6069 40.9644 52.1008 40.8206C51.7695 40.7265 51.4189 40.696 51.0009 40.6236C50.5115 39.8775 50.2731 39.1376 50.332 38.2943C50.3795 37.6087 50.2845 36.9143 50.6106 36.2603C50.7087 36.0633 50.6779 35.8068 50.7275 35.5824C50.8767 34.9092 51.0281 34.2246 51.4564 33.6678C51.9886 32.9754 52.4483 32.2061 53.2623 31.7707C53.3624 31.7169 53.4475 31.6311 53.5325 31.5536C54.0872 31.0443 54.7029 30.6792 55.4912 30.6746C55.6415 30.674 55.7986 30.6218 55.9394 30.5624C56.8771 30.171 57.8095 30.1673 58.7492 30.5598C58.9245 30.6327 59.1254 30.6896 59.3121 30.6839C59.7697 30.6694 60.135 30.8747 60.4924 31.1073C61.6898 31.8865 62.5085 32.9847 63.1523 34.2272C63.5713 35.0333 63.672 35.8937 63.6407 36.7928C63.6225 37.3228 63.6439 37.8807 63.7957 38.3822C63.9548 38.9086 64.0341 39.4215 64.0321 39.9629C64.0247 42.195 63.5807 44.3904 63.4654 46.6137C63.4388 47.1147 63.2035 47.5573 62.94 47.9983C62.5669 48.6214 62.2116 49.277 61.9961 49.9642C61.7827 50.6436 61.4926 51.2485 61.0115 51.7609C60.6614 52.1337 60.3625 52.5199 60.2863 53.0432C60.2649 53.1916 60.195 53.3358 60.1329 53.4755C59.549 54.7888 58.6438 55.903 57.7155 56.9661C57.0044 57.7809 56.3532 58.6413 55.737 59.5105C55.1787 60.2979 54.4795 60.9613 53.9453 61.7617C53.7376 62.074 53.4292 62.3465 53.1125 62.5585C52.0763 63.2513 51.1955 64.1127 50.3143 64.9788C50.0414 65.2471 49.7346 65.4839 49.4335 65.7228C49.0438 66.0325 48.6123 66.2973 48.2554 66.6406C47.5614 67.3076 46.9765 68.1044 46.22 68.6855C45.0883 69.5552 44.4715 70.8235 43.513 71.8178C43.4113 71.9233 43.3487 72.0836 43.3127 72.2294C43.0972 73.0949 42.3876 73.7294 42.1945 74.6032C41.3681 75.8741 40.9976 77.3353 40.4675 78.7272C40.264 79.2618 40.2817 79.8698 40.5755 80.4086C40.7435 80.7162 40.8974 80.9836 40.7586 81.3734C40.6658 81.634 40.8807 81.8796 41.1395 82.0208C41.5048 82.2193 41.895 82.2617 42.2472 82.043C42.8342 81.678 43.4014 81.2809 43.9623 80.8781C44.3364 80.6097 44.6578 80.2623 45.0502 80.0265C46.7209 79.0214 48.4996 78.2959 50.4656 78.0881C50.7327 78.0597 50.9936 77.9759 51.2571 77.9159C53.1433 77.4899 55.0185 77.0742 56.9845 77.1072C58.5217 77.1331 59.9737 77.4614 61.4216 77.8813C62.2372 78.1176 63.0433 78.389 63.8411 78.6791C64.4197 78.8895 64.9775 79.1589 65.5452 79.3993C65.9516 79.5715 66.2605 79.8181 66.4337 80.2494C66.6195 80.708 67.0014 81.0146 67.5081 81.0053C67.9891 80.9965 68.2897 81.2442 68.6252 81.5151C69.3321 82.0864 70.0986 82.4375 70.8886 82.6112C71.2136 82.2865 71.331 81.8765 71.1442 81.4629C70.8954 80.9132 70.8875 80.3559 70.8922 79.7773C70.8943 79.4774 70.8568 79.1501 70.7321 78.8833C70.5249 78.4412 70.527 77.9919 70.527 77.5317C70.5228 74.9956 70.5197 72.46 70.516 69.9239C70.516 69.6162 70.5202 69.3086 70.5067 69.002C70.4973 68.8112 70.4769 68.6168 70.4284 68.4332C70.2886 67.9198 69.8628 67.5496 69.3561 67.5134C68.8464 67.4767 68.4483 67.6949 68.1884 68.1256C67.9124 68.5842 67.734 69.1229 67.3802 69.5076C66.8381 70.0981 66.6758 70.7635 66.6545 71.5128C66.6456 71.8556 66.6352 72.2066 66.5538 72.5365C66.4374 73.0101 66.2553 73.4672 66.092 73.961C65.3928 73.582 64.7182 73.1042 63.9673 72.8395C63.1889 72.565 62.5012 72.1689 61.8067 71.7573C61.61 71.6405 61.3877 71.535 61.1649 71.4962C60.0671 71.3054 59.0064 70.8954 57.8559 71.0133C57.319 71.0686 56.7706 71.0371 56.2285 71.0169C54.7436 70.9616 53.2894 71.0712 51.9192 71.7098C51.8493 71.7423 51.7757 71.7852 51.7027 71.7889C50.6529 71.839 49.7982 72.3943 48.9024 72.8421C48.5564 73.0153 48.2194 73.2056 47.8682 73.3674C47.7498 73.4217 47.6011 73.4114 47.3402 73.4486C48.2256 72.3654 48.9864 71.3597 49.8285 70.4259C50.6023 69.5676 51.4538 68.777 52.2912 67.9772C52.5647 67.715 52.8981 67.5129 53.2096 67.291C53.8675 66.8216 54.5547 66.3883 55.1813 65.8821C55.6582 65.4969 56.0287 64.9855 56.7148 64.9162C56.8906 64.8981 57.0863 64.7746 57.2146 64.6432C57.7239 64.12 58.2655 63.6133 58.6834 63.0233C58.9819 62.6019 59.3168 62.2689 59.7275 61.9706C60.1308 61.6779 60.6051 61.3936 60.8472 60.9882C61.4117 60.0415 62.2142 59.3269 62.9656 58.5555C63.2609 58.2525 63.5145 57.8999 63.8458 57.6434C64.5439 57.102 65.2838 56.6129 66.0002 56.0928C66.1864 55.9573 66.3487 55.7882 66.5219 55.6357C67.7611 54.5499 68.7071 53.2516 69.3864 51.7604C69.723 51.0226 70.1159 50.3199 70.6397 49.6922C71.3196 48.8768 71.7312 47.9378 71.9796 46.9115C72.277 45.6804 72.743 44.4757 72.9089 43.2301C73.0737 41.9814 72.9584 40.6981 72.9657 39.4303Z" fill="#F74070"/>
<path fill-rule="evenodd" clip-rule="evenodd" d="M53.2127 35.2846C52.8162 34.3612 52.8193 34.2019 53.3875 33.7118C53.8524 33.311 54.3517 32.947 54.8557 32.5944C55.8962 31.868 57.0404 31.9352 58.1956 32.2283C58.5812 32.3261 58.8577 32.5758 59.0664 32.9346C59.3346 33.3953 59.6831 33.809 59.9748 34.2567C60.5451 35.1285 61.0288 36.0468 61.3204 37.0483C61.5886 37.9717 61.7629 38.9102 61.7394 39.8822C61.7144 40.8791 61.7186 41.8775 61.7405 42.8749C61.754 43.4995 61.645 44.0921 61.4378 44.6774C61.1556 45.4731 60.902 46.2787 60.6208 47.0744C59.9409 49.0015 59.0377 50.8142 57.8027 52.4579C57.6665 52.6389 57.582 52.8576 57.4776 53.0613C57.3039 53.4021 57.1155 53.7366 56.9653 54.0872C56.2739 55.7004 55.1229 57.0023 54.0152 58.3259C53.4997 58.9423 52.8882 59.4867 52.2772 60.0141C52.0283 60.2292 51.6735 60.3466 51.3469 60.4396C51.2175 60.4764 51.0338 60.328 50.7656 60.2194C51.3354 59.6025 51.8321 59.0793 52.3121 58.541C53.1303 57.6233 53.951 56.7071 54.7415 55.7665C55.0112 55.446 55.209 55.0623 55.413 54.6931C55.8581 53.8881 56.2843 53.0737 56.7226 52.2651C56.7769 52.1648 56.8405 52.0629 56.9225 51.9848C57.7307 51.2144 58.0573 50.1803 58.4987 49.2047C59.1979 47.6602 59.6325 46.0263 60.2002 44.4374C60.3844 43.922 60.4773 43.407 60.4721 42.862C60.4611 41.7881 60.4747 40.7131 60.4715 39.6392C60.4653 37.7706 59.8611 36.1119 58.7001 34.6404C58.4638 34.3415 58.3156 33.9749 58.0855 33.6709C57.9566 33.5003 57.7615 33.3297 57.5632 33.2697C57.0002 33.0991 56.4007 33.0489 55.8529 33.278C55.2158 33.5453 54.5797 33.8493 54.0147 34.2386C53.6896 34.4615 53.5075 34.8855 53.2127 35.2846Z" fill="#080D26"/>
<path fill-rule="evenodd" clip-rule="evenodd" d="M49.9409 61.6799C49.6279 62.0434 49.4114 62.3598 49.1327 62.6065C47.6008 63.9616 46.2004 65.4306 44.98 67.0727C44.3158 67.9662 43.6229 68.8447 42.8794 69.674C42.0748 70.5726 41.4382 71.5669 40.8846 72.6253C40.654 73.0674 40.4469 73.5333 40.1422 73.9221C39.4425 74.8161 39.0945 75.8797 38.615 76.8786C38.5033 77.1107 38.4595 77.3972 38.4636 77.6578C38.4746 78.3527 38.1067 78.9003 37.7994 79.4706C37.6638 79.7219 37.2511 79.6764 37.1493 79.3951C37.0611 79.1505 37.0183 78.8827 37.0006 78.6221C36.9902 78.4778 37.1175 78.3227 37.1039 78.1805C37.0069 77.1004 37.4478 76.164 37.8814 75.2246C38.0254 74.9117 38.1428 74.5839 38.317 74.2882C38.9009 73.2965 39.5103 72.3198 40.0989 71.3306C40.5716 70.537 41.1053 69.794 41.7252 69.1001C42.6211 68.096 43.4768 67.0557 44.3179 66.005C45.3833 64.6747 46.67 63.5687 47.9535 62.4648C48.408 62.0739 49.0153 61.8562 49.559 61.5708C49.6065 61.5455 49.6994 61.607 49.9409 61.6799Z" fill="#080D26"/>
<path fill-rule="evenodd" clip-rule="evenodd" d="M44.4658 83.8562C44.2367 83.563 44.2858 83.3257 44.4721 83.1732C45.3184 82.4824 46.2189 81.9136 47.383 81.9141C47.8015 81.9141 48.2257 81.8247 48.6368 81.7321C49.9574 81.4369 51.2723 81.1179 52.5913 80.8159C52.8543 80.7559 53.1256 80.6975 53.3938 80.6939C55.0968 80.6711 56.803 80.577 58.4961 80.8387C59.7619 81.0341 60.9761 81.4245 62.1855 81.8314C63.0266 82.1153 63.8724 82.3846 64.7171 82.6597C65.7148 82.9849 66.632 83.472 67.5002 84.0506C67.6234 84.1328 67.758 84.2496 67.805 84.3794C67.8509 84.5071 67.8394 84.7026 67.7674 84.8127C67.7001 84.9161 67.5216 84.9901 67.3881 84.9994C67.2435 85.0092 67.0833 84.9461 66.9446 84.8836C66.5595 84.7114 66.1504 84.5681 65.8082 84.3313C65.0907 83.8334 64.259 83.6633 63.4498 83.412C62.3071 83.0563 61.177 82.6613 60.04 82.2869C58.7419 81.8598 57.403 81.7482 56.0412 81.6934C54.1248 81.6168 52.2683 81.8898 50.4181 82.3391C49.3334 82.6028 48.258 82.9126 47.1106 82.896C46.6369 82.8883 46.1516 83.154 45.6836 83.3272C45.2636 83.4834 44.8582 83.684 44.4658 83.8562Z" fill="#080D26"/>
<path fill-rule="evenodd" clip-rule="evenodd" d="M52.2221 44.918C51.9805 45.145 51.7468 45.3828 51.4922 45.5969C51.3466 45.7194 51.1776 45.8621 51.0012 45.8931C49.6801 46.1227 48.3814 46.6558 47.0149 46.3802C46.1915 46.2142 45.3468 46.0229 44.7019 45.3988C44.5381 45.2396 44.3487 45.0995 44.1535 44.98C43.2676 44.4366 42.6247 43.6895 42.2527 42.7288C41.8369 41.6564 41.4356 40.5789 41.0568 39.4936C40.9457 39.1746 40.8873 38.8209 40.8867 38.4833C40.8857 37.3328 40.9285 36.1829 40.941 35.0325C40.9499 34.2207 41.1294 33.4462 41.3876 32.6815C41.5056 32.3309 41.707 32.0677 42.0665 31.9581C42.1567 31.9302 42.2736 31.9886 42.4411 32.0186C42.3863 32.1944 42.3508 32.3314 42.3018 32.4638C42.0211 33.2218 41.8374 33.988 41.8922 34.8112C41.9506 35.6902 41.9689 36.5743 41.9522 37.4554C41.9339 38.3918 42.0905 39.2826 42.4583 40.1425C42.775 40.8829 43.0782 41.6285 43.398 42.3674C43.6803 43.0194 44.1353 43.5292 44.7405 43.9097C44.9356 44.0328 45.1397 44.1491 45.3108 44.3001C46.3914 45.2561 47.6655 45.3688 49.0023 45.0995C49.4615 45.0069 49.9024 44.8906 50.3714 44.9816C50.7784 45.0602 51.128 44.874 51.4849 44.7313C51.7619 44.6207 52.0082 44.6217 52.2221 44.918Z" fill="#080D26"/>
<path fill-rule="evenodd" clip-rule="evenodd" d="M69.6973 42.512C69.6973 42.5886 69.6911 42.6661 69.6984 42.7421C69.9697 45.5507 69.1296 48.1319 67.9844 50.6297C67.209 52.322 66.105 53.7961 64.6273 54.9699C64.5094 55.065 64.3889 55.187 64.2501 55.2217C64.1207 55.2542 63.924 55.232 63.8342 55.1498C63.7497 55.0727 63.6923 54.8204 63.7497 54.7589C64.7087 53.7176 65.0061 52.3014 65.8284 51.1825C66.0752 50.8464 66.2526 50.4498 66.4081 50.0599C66.778 49.1339 67.1141 48.1949 67.4678 47.2627C67.8816 46.1717 68.0438 45.0425 68.0324 43.8802C68.0219 42.7685 68.011 41.6558 68.0454 40.5447C68.0731 39.6538 67.9322 38.7872 67.7694 37.9211C67.6092 37.0737 67.1683 36.3509 66.6893 35.6503C66.6027 35.5241 66.4817 35.4222 66.3909 35.2987C66.083 34.8819 66.0293 34.5567 66.2422 34.37C66.5203 34.1244 66.8333 34.2087 67.1031 34.3592C67.4005 34.5241 67.7391 34.6973 67.9264 34.9605C68.5004 35.7733 69.0472 36.6001 69.283 37.6042C69.5387 38.6936 69.7333 39.7789 69.6937 40.9009C69.6754 41.4371 69.6905 41.9743 69.6905 42.511C69.6931 42.512 69.6952 42.512 69.6973 42.512Z" fill="white"/>
<path fill-rule="evenodd" clip-rule="evenodd" d="M47.7233 36.9723C47.7463 37.3539 47.7765 37.735 47.7891 38.1171C47.7964 38.3534 47.5412 38.5385 47.3116 38.4826C46.7664 38.3498 46.4846 38.084 46.4559 37.5411C46.4085 36.6595 46.3652 35.7733 46.4085 34.8933C46.4586 33.8581 46.9589 32.9828 47.6278 32.2108C48.6708 31.0071 49.9006 30.0128 51.2364 29.1457C51.9961 28.6525 52.9191 28.592 53.7408 28.258C54.0252 28.1422 54.3539 28.1091 54.6117 27.955C55.7705 27.2621 57.0024 27.4581 58.2317 27.6205C58.5354 27.6608 58.8401 27.7507 59.1218 27.8691C59.2304 27.9146 59.3123 28.0972 59.3373 28.23C59.3504 28.3024 59.2335 28.457 59.1495 28.4788C58.5531 28.6328 57.9536 28.7781 57.3483 28.8929C57.0854 28.9431 56.8047 28.8955 56.5365 28.9286C56.2709 28.9612 55.9818 28.9865 55.7538 29.1075C54.7859 29.6168 53.7215 29.8365 52.6968 30.1757C52.3712 30.2833 52.0488 30.4358 51.7639 30.6255C50.795 31.2682 49.91 32.0112 49.0987 32.8447C48.2534 33.7129 47.7311 34.6958 47.7927 35.9341C47.8099 36.279 47.7953 36.6249 47.7953 36.9708C47.7718 36.9708 47.7478 36.9713 47.7233 36.9723Z" fill="white"/>
<path fill-rule="evenodd" clip-rule="evenodd" d="M56.4467 73.4588C57.1041 73.4588 57.7637 73.4314 58.419 73.4696C58.7968 73.4914 59.2157 73.5358 59.5345 73.7137C60.9167 74.4841 62.3954 75.0032 63.8709 75.5575C64.7924 75.9034 65.7154 76.3444 66.4766 77.0166C66.7996 77.302 66.7203 77.6986 66.3055 77.7906C66.0519 77.8465 65.7707 77.8511 65.5145 77.8051C65.215 77.7508 64.903 77.6609 64.6421 77.5094C63.4384 76.8093 62.0578 76.529 60.8259 75.8931C60.2165 75.5782 59.5194 75.4484 58.9476 75.0218C58.755 74.8786 58.4347 74.8672 58.1717 74.8631C56.9727 74.8435 55.7669 74.768 54.5762 74.8646C53.0725 74.9877 51.6099 75.3739 50.2497 76.0461C49.9158 76.211 49.6565 76.5239 49.3601 76.7653C49.0069 77.0528 48.6489 77.0942 48.4209 76.8791C48.147 76.6211 48.123 76.1485 48.4569 75.8538C48.915 75.4489 49.3914 75.0249 49.9356 74.7649C50.6953 74.4019 51.5207 74.1703 52.3253 73.9045C53.6652 73.4609 55.0479 73.3812 56.4467 73.4588Z" fill="white"/>
<path fill-rule="evenodd" clip-rule="evenodd" d="M44.5552 77.3922C44.5442 77.8741 43.9833 78.3141 43.4115 78.2893C42.9789 78.2712 42.6461 77.8979 42.6565 77.4439C42.668 76.9377 43.1537 76.5546 43.7934 76.5479C44.1952 76.5437 44.5651 76.9538 44.5552 77.3922Z" fill="white"/>
<path fill-rule="evenodd" clip-rule="evenodd" d="M62.0871 28.4171C62.6141 28.3985 63.1651 28.8323 63.2386 29.2893C63.2611 29.4243 63.2152 29.6006 63.1369 29.7144C62.8687 30.1006 62.2551 30.1828 61.916 29.9015C61.5538 29.6016 61.4218 28.9869 61.6864 28.6756C61.798 28.5422 61.9916 28.476 62.0871 28.4171Z" fill="white"/>
<path fill-rule="evenodd" clip-rule="evenodd" d="M69.1416 76.9418C69.1244 77.0157 69.1098 77.0912 69.0873 77.1636C68.9877 77.4961 68.7075 77.7427 68.4445 77.7344C68.1429 77.7241 67.8372 77.3854 67.8054 77.0256C67.8012 76.9873 67.796 76.9495 67.797 76.9118C67.8101 76.4485 68.121 75.9485 68.4163 75.9154C68.7534 75.8772 69.1447 76.432 69.1416 76.9418Z" fill="white"/>
</svg>
