<svg width="62" height="70" viewBox="0 0 62 70" fill="none" xmlns="http://www.w3.org/2000/svg">
<path d="M26.2362 28.5794C26.6011 22.8588 19.8298 21.7585 16.5857 25.1378C15.6949 22.9843 14.2454 20.4089 11.7737 20.9505C8.27118 21.718 6.82646 24.9815 5.95083 28.2207C4.84947 32.2914 6.15251 36.7166 7.56682 40.5266C8.1327 42.0518 8.85066 43.8451 9.94081 45.1607C10.4867 45.8189 11.2655 46.754 12.1499 46.9418C13.8324 47.2996 13.3625 46.9329 14.0661 45.7023C16.3632 41.6851 19.3087 39.7672 22.6144 36.6016C24.7042 34.6003 26.0521 31.4534 26.2362 28.5794ZM23.811 31.3393C22.8225 33.7818 21.0127 35.4901 19.0133 37.0955C16.1799 39.3705 12.8615 41.5523 11.9554 45.2376C9.34531 42.9116 8.33121 38.0791 7.67168 34.9549C7.05377 32.025 7.39875 29.0044 8.44487 26.2283C9.18604 24.2618 11.6297 20.8154 14.2053 24.0805C14.8985 24.9597 15.2291 26.2583 15.5132 27.3326C15.7285 28.1462 16.8243 28.0288 17.1596 27.4046C18.7396 24.4626 23.6101 23.4579 24.5497 27.7139C24.8131 28.9137 24.248 30.2593 23.811 31.3393Z" fill="#FFD8E2"/>
<path d="M29.8837 11.5551C30.2863 11.3211 30.2975 10.5771 29.834 10.2791C27.4681 8.76033 24.6163 8.59194 21.9125 8.04303C20.3285 7.72162 10.2331 4.88967 9.48069 6.37042C7.29959 7.93942 6.19986 10.5285 5.24578 13.0528C3.58655 17.4416 2.39394 22.2239 1.56552 26.8289C0.272076 34.0116 1.65758 46.6931 9.64397 49.9185C9.58795 51.2293 8.92441 53.6127 8.79795 54.3106C8.31851 56.9661 7.4933 59.8596 4.81436 60.9598C3.43768 61.5249 0.171226 62.1151 0.00954491 64.1383C-0.278599 67.7588 6.03417 68.8614 8.51941 69.4371C10.4932 69.8945 17.5023 71.1178 17.5119 67.4017C17.5167 65.5453 15.6101 64.1488 14.4304 62.9619C11.3808 59.8952 12.5054 54.6134 14.0206 50.9686C14.0598 50.873 14.0806 50.7816 14.0926 50.6917C20.4886 50.4877 25.7536 44.7954 27.5057 38.6838C30.0422 29.8301 28.5822 20.5667 29.8837 11.5551ZM11.6298 62.6454C12.6223 64.2557 17.7528 67.1524 13.5043 68.1215C11.8627 68.4955 9.71039 67.7863 8.12319 67.409C6.20223 66.9524 3.3256 66.3031 1.96172 64.7009C1.75521 64.4581 7.46688 61.8609 8.01115 61.0756C9.60155 58.7828 10.1434 56.1767 10.4476 53.4241C10.5132 52.8266 10.7357 51.4543 10.7237 50.2837C10.831 50.3136 10.9342 50.3492 11.0439 50.376C11.3808 50.4577 11.7146 50.5176 12.0476 50.5678C10.5892 54.0944 9.56072 59.288 11.6298 62.6454ZM17.5167 48.0427C11.8267 50.7314 7.19234 46.7627 4.76473 41.8412C2.52361 37.2986 2.47719 32.02 3.14793 27.109C3.64898 23.4415 4.77033 19.834 5.74442 16.2702C6.57363 13.2382 7.67418 9.31895 10.2707 7.28201C16.2609 8.57331 22.2727 9.81039 28.2108 11.3081C26.3051 23.189 30.8009 41.7667 17.5167 48.0427Z" fill="#FFD8E2"/>
<path d="M26.3634 16.4911C24.3712 13.651 21.7779 14.65 18.7732 15.0913C16.6401 15.4046 14.6615 13.4591 12.7117 12.8568C11.0333 12.3387 8.92826 13.7125 7.36908 14.0218C6.98168 14.0987 6.90965 14.6824 7.34106 14.7545C8.16147 14.8929 8.47041 14.9496 9.30203 14.7172C12.0674 13.9465 13.5114 14.667 15.7117 15.9486C19.0149 17.8722 22.2925 14.6841 25.4853 17.3031C26.0112 17.7354 26.7636 17.061 26.3634 16.4911Z" fill="#FFD8E2"/>
<path d="M11.1867 24.5767C9.88364 25.532 9.21771 27.4864 9.40661 29.0724C9.46904 29.597 10.2174 29.7694 10.4399 29.2553C10.7184 28.6117 10.8209 27.9163 10.9842 27.237C11.1675 26.4744 11.5133 25.8542 11.8934 25.1798C12.136 24.7491 11.5589 24.303 11.1867 24.5767Z" fill="#FFD8E2"/>
<path d="M9.54946 32.042C9.37097 31.6429 8.81708 31.7765 8.82429 32.2104C8.83149 32.6881 8.84429 33.1269 9.03318 33.5722C9.18606 33.9308 9.6615 33.8701 9.75434 33.5058C9.88641 32.986 9.76316 32.5197 9.54946 32.042Z" fill="#FFD8E2"/>
<path d="M9.34123 65.3655C8.05419 65.0182 6.78875 64.6862 5.60416 64.0523C5.18075 63.8256 4.8942 64.4806 5.2904 64.721C6.53903 65.4788 7.84608 66.0326 9.31641 66.0043C9.70061 65.997 9.66699 65.4537 9.34123 65.3655Z" fill="#FFD8E2"/>
<path d="M11.7971 65.794C11.5818 65.6564 11.3962 65.5665 11.144 65.5212C10.5365 65.4135 10.3716 66.3664 10.9791 66.4741C11.2321 66.5186 11.437 66.4983 11.6851 66.4425C12.0229 66.3664 12.0893 65.981 11.7971 65.794Z" fill="#FFD8E2"/>
<path d="M39.386 36.6021C42.6908 39.7676 45.6363 41.6856 47.9343 45.7028C48.6378 46.9326 48.168 47.3001 49.8504 46.9423C50.7349 46.7536 51.5144 45.8194 52.0603 45.1612C53.1505 43.8456 53.8684 42.0523 54.4343 40.527C55.8486 36.7171 57.1517 32.2918 56.0503 28.2212C55.1739 24.982 53.7292 21.7185 50.2266 20.951C47.755 20.4094 46.3062 22.9847 45.4146 25.1383C42.1706 21.7598 35.3992 22.8592 35.7642 28.5798C35.9483 31.4531 37.2969 34.6 39.386 36.6021ZM37.4522 27.7136C38.3911 23.4575 43.2615 24.4622 44.8423 27.4043C45.1777 28.0277 46.2734 28.1459 46.4887 27.3323C46.7729 26.2579 47.1026 24.9594 47.7966 24.0801C50.3715 20.8142 52.8159 24.2607 53.5571 26.228C54.6032 29.0041 54.9482 32.0247 54.3303 34.9546C53.6715 38.0788 52.6566 42.9113 50.0465 45.2373C49.1397 41.552 45.8212 39.3701 42.9878 37.0952C40.9884 35.4897 39.1787 33.7823 38.1902 31.3389C37.7524 30.2589 37.1873 28.9134 37.4522 27.7136Z" fill="#FFD8E2"/>
<path d="M34.4956 38.683C36.2477 44.7947 41.5127 50.4869 47.9087 50.6909C47.9207 50.7808 47.9415 50.8731 47.9808 50.9678C49.4959 54.6126 50.6205 59.8944 47.571 62.9612C46.3904 64.148 44.4846 65.5446 44.4886 67.401C44.4982 71.1178 51.5073 69.8937 53.4811 69.4363C55.9655 68.8607 62.2791 67.758 61.991 64.1375C61.8293 62.1143 58.5629 61.5249 57.1862 60.959C54.508 59.8588 53.682 56.9653 53.2026 54.3098C53.0761 53.612 52.4126 51.2285 52.3565 49.9178C60.3429 46.6923 61.7276 34.0108 60.435 26.8281C59.6058 22.2231 58.4132 17.4417 56.7547 13.052C55.8007 10.5277 54.7009 7.93865 52.5198 6.36965C51.7666 4.8889 41.672 7.72004 40.088 8.04226C37.3835 8.59116 34.5316 8.75958 32.1665 10.2784C31.703 10.5763 31.7134 11.3203 32.1168 11.5543C33.4175 20.5667 31.9576 29.8301 34.4956 38.683ZM49.9521 50.5679C50.2851 50.5177 50.6189 50.4578 50.9558 50.376C51.0655 50.3493 51.1688 50.3137 51.276 50.2837C51.264 51.4544 51.4865 52.8258 51.5521 53.4241C51.8555 56.1776 52.3973 58.7828 53.9885 61.0756C54.5336 61.8609 60.2445 64.4589 60.038 64.701C58.6749 66.3032 55.7975 66.9525 53.8765 67.4091C52.2893 67.7864 50.137 68.4964 48.4954 68.1215C44.2469 67.1524 49.3774 64.2557 50.3699 62.6454C52.439 59.288 51.4105 54.0945 49.9521 50.5679ZM33.7897 11.3082C39.7278 9.81043 45.7396 8.57335 51.7298 7.28205C54.3263 9.3198 55.4269 13.2383 56.2561 16.2702C57.2302 19.834 58.3515 23.4416 58.8526 27.1091C59.5233 32.0209 59.4769 37.2986 57.2358 41.8413C54.8074 46.7628 50.1731 50.7306 44.483 48.0428C31.1988 41.7668 35.6954 23.189 33.7897 11.3082Z" fill="#FFD8E2"/>
<path d="M35.6363 16.4911C37.6285 13.651 40.2218 14.65 43.2265 15.0913C45.3596 15.4046 47.3381 13.4591 49.2879 12.8568C50.9664 12.3387 53.0714 13.7125 54.6306 14.0218C55.018 14.0987 55.09 14.6824 54.6586 14.7545C53.8382 14.8929 53.5293 14.9496 52.6976 14.7172C49.9323 13.9465 48.4883 14.667 46.288 15.9486C42.9848 17.8722 39.7072 14.6841 36.5152 17.3031C35.9885 17.7354 35.2361 17.061 35.6363 16.4911Z" fill="#FFD8E2"/>
<path d="M50.8117 24.5767C52.1147 25.532 52.7807 27.4864 52.5918 29.0724C52.5293 29.597 51.781 29.7694 51.5584 29.2553C51.2799 28.6117 51.1775 27.9163 51.0142 27.237C50.8301 26.4744 50.4851 25.8542 50.1049 25.1798C49.8616 24.7491 50.4387 24.303 50.8117 24.5767Z" fill="#FFD8E2"/>
<path d="M52.4474 32.042C52.6267 31.6429 53.1798 31.7765 53.1726 32.2104C53.1654 32.6881 53.1526 33.1269 52.9637 33.5722C52.8108 33.9308 52.3354 33.8701 52.2425 33.5058C52.1096 32.986 52.2329 32.5197 52.4474 32.042Z" fill="#FFD8E2"/>
<path d="M52.6559 65.3655C53.9421 65.0182 55.2084 64.6862 56.393 64.0523C56.8164 63.8256 57.1029 64.4806 56.7067 64.721C55.4581 65.4788 54.151 66.0326 52.6807 66.0043C52.2973 65.997 52.3301 65.4537 52.6559 65.3655Z" fill="#FFD8E2"/>
<path d="M50.2003 65.794C50.4156 65.6564 50.6013 65.5665 50.8534 65.5212C51.4609 65.4135 51.6258 66.3664 51.0183 66.4741C50.7654 66.5186 50.5605 66.4983 50.3123 66.4425C49.9754 66.3664 49.9081 65.981 50.2003 65.794Z" fill="#FFD8E2"/>
<path d="M27.5447 5.28225C27.1149 4.78678 26.3849 4.27918 25.711 4.52044C25.2131 4.69855 25.0123 5.11306 25.0907 5.62553C25.1795 6.2133 25.759 6.52986 26.2153 6.80593C26.6227 7.05285 27.1365 7.43092 27.6311 7.38963C28.0145 7.35724 28.2354 7.11356 28.2787 6.73467C28.3419 6.17848 27.8793 5.66843 27.5447 5.28225Z" fill="#FFD8E2"/>
<path d="M30.1927 0.415829C29.566 -0.408339 28.4455 0.0822753 28.5815 1.10317C28.6848 1.88282 28.9065 2.61064 29.141 3.36032C29.3563 4.0501 29.3803 4.77551 29.7061 5.42804C29.9286 5.87413 30.5153 5.77941 30.7586 5.42804C31.7151 4.05011 31.1252 1.64237 30.1927 0.415829Z" fill="#FFD8E2"/>
<path d="M34.6363 1.59446C34.016 2.01221 33.7167 2.61132 33.3821 3.26304C33.0163 3.97468 32.5921 4.65392 32.1687 5.33074C31.6861 6.10228 32.7514 6.85764 33.3765 6.27311C33.9624 5.72582 34.4346 5.09353 34.8957 4.43776C35.3583 3.77875 35.8025 3.11651 35.8217 2.28262C35.8354 1.70053 35.1342 1.25929 34.6363 1.59446Z" fill="#FFD8E2"/>
</svg>
