<svg width="110" height="110" viewBox="0 0 110 110" fill="none" xmlns="http://www.w3.org/2000/svg">
<circle cx="55" cy="55" r="54" fill="#FFF2F6" stroke="#F74070" stroke-width="2" stroke-dasharray="8 4"/>
<path d="M72.9914 64.0634C72.9919 63.4788 72.8464 62.9409 72.6564 62.3871C72.3214 61.4091 71.9535 60.4396 71.7297 59.4199C71.6327 58.9783 71.3775 58.5641 71.1532 58.1608C70.8568 57.6303 70.4606 57.151 70.2142 56.5997C69.7396 55.5373 68.9334 54.7744 68.0488 54.1198C66.8219 53.2118 65.5915 52.2895 64.1853 51.6612C64.0075 51.5812 63.861 51.4267 63.6671 51.2822C63.8248 51.1913 63.9105 51.1123 64.0085 51.09C64.6741 50.9405 65.1448 50.5352 65.5107 49.969C65.6243 49.7931 65.7629 49.6079 65.9344 49.5001C66.4134 49.1991 66.6789 48.7461 66.9115 48.2529C67.7383 46.5016 68.6777 44.8064 69.3267 42.9682C69.5221 42.4134 69.6578 41.8794 69.6436 41.2933C69.624 40.4654 69.6181 39.6364 69.6333 38.8089C69.6588 37.443 69.3301 36.1755 68.6782 34.9859C68.5411 34.7346 68.3785 34.4858 68.3006 34.2141C67.7971 32.4424 66.4864 31.145 65.6566 29.5666C65.5606 29.3823 65.3784 29.2422 65.2291 29.0883C64.9807 28.831 64.7167 28.5886 64.4777 28.3229C63.9688 27.7566 63.3786 27.3116 62.6929 26.9838C62.4088 26.8477 62.1198 26.6783 61.8989 26.4563C61.2587 25.8126 60.4648 25.5558 59.6101 25.4202C59.4009 25.387 59.1746 25.383 58.9895 25.2951C58.4213 25.0254 57.8267 25.0005 57.2194 25.0115C56.6522 25.0214 56.0825 25.0363 55.5149 25.0075C54.6851 24.9653 53.8941 25.1024 53.1188 25.3999C52.4884 25.6418 51.8472 25.8494 51.1537 25.8196C50.9465 25.8101 50.7202 25.8553 50.5307 25.9398C49.2959 26.4871 48.063 27.0389 46.8439 27.6196C46.5647 27.7527 46.2733 27.9593 46.1048 28.2116C45.8315 28.6229 45.4808 28.8906 45.0518 29.0793C44.5375 29.3053 44.1877 29.6902 43.9453 30.1954C43.6044 30.9071 43.2615 31.6189 42.8981 32.3197C42.6434 32.8119 42.5357 33.3245 42.5459 33.8773C42.5606 34.6328 42.5406 35.3897 42.5504 36.1457C42.5773 38.346 42.3255 38.0311 43.645 39.9483C43.6651 39.9776 43.6798 40.0114 43.6979 40.0422C44.1206 40.7748 44.75 41.3062 45.4216 41.7791C45.9824 42.174 46.6 42.4069 47.3166 42.3433C47.8803 42.2932 48.4524 42.321 49.0196 42.3235C49.4218 42.3249 49.7866 42.2048 50.1368 42.0145C50.874 41.6127 51.4162 40.9933 51.9124 40.3352C52.0544 40.148 52.1176 39.8758 52.1485 39.6334C52.1886 39.314 52.1548 38.9862 52.1666 38.6629C52.1862 38.128 52.0201 37.6785 51.6268 37.3109C51.4446 37.141 51.2252 36.9647 51.1419 36.7452C50.874 36.0414 50.3313 35.5755 49.8459 35.0535C49.4203 34.5945 49.167 34.0571 49.1788 33.4055C49.1881 32.9376 49.1284 32.4672 49.1602 32.0023C49.2116 31.2439 49.412 30.5157 49.8782 29.9053C50.2476 29.422 50.6727 28.9835 51.0601 28.5141C51.2316 28.306 51.4329 28.1833 51.6978 28.1838C52.4232 28.1853 53.0884 27.928 53.7638 27.7065C54.0993 27.5962 54.4461 27.4204 54.7846 27.4293C56.0482 27.4621 57.3394 27.1601 58.5702 27.711C58.7568 27.7944 58.9875 27.7894 59.1981 27.8013C59.6419 27.8257 60.0039 28.0025 60.3502 28.2886C60.7312 28.603 61.152 28.8767 61.582 29.1205C61.988 29.3505 62.3539 29.6123 62.6978 29.9341C63.4393 30.6275 64.0398 31.4078 64.4316 32.3575C64.6359 32.8541 64.8896 33.3315 65.137 33.8093C65.3236 34.1699 65.3966 34.5429 65.3926 34.9497C65.3784 36.4978 65.3892 38.046 65.3726 39.5947C65.3701 39.8743 65.3471 40.1882 65.2232 40.4276C64.5203 41.788 64.077 43.3114 62.8692 44.3638C62.7384 44.4781 62.664 44.6559 62.5489 44.7925C62.4122 44.9554 62.2711 45.1163 62.1144 45.2579C61.7701 45.5673 61.4257 45.8782 61.0623 46.1628C60.2786 46.7763 59.4734 47.3613 58.7544 48.0572C58.6065 48.2003 58.3816 48.2603 58.1936 48.3617C57.9741 48.4804 57.7498 48.5901 57.5412 48.7248C56.3167 49.516 55.1049 50.3256 53.8726 51.1024C53.393 51.4054 52.8964 51.7689 52.363 51.8757C51.5078 52.0471 50.8182 52.582 49.9904 52.7996C49.4698 52.9367 49.2082 53.4011 49.2057 53.9633C49.2043 54.5027 49.5755 54.985 50.1285 55.1514C50.5821 55.2875 51.041 55.2746 51.4882 55.1082C52.1514 54.8613 52.8087 54.5996 53.4763 54.3651C53.8094 54.2479 54.1552 54.1674 54.4995 54.088C54.8791 54.0006 55.2631 53.9285 55.6466 53.8595C55.9586 53.8034 56.2726 53.7219 56.5865 53.7199C58.4336 53.708 60.2796 53.709 62.1262 53.7224C62.4019 53.7244 62.7036 53.7612 62.949 53.8769C64.8754 54.7893 66.5985 55.9525 67.6722 58.0182C67.5218 58.6376 67.7011 59.2843 67.9851 59.9221C68.0826 60.1406 68.1252 60.4073 68.1154 60.6487C68.0753 61.5835 68.0121 62.5167 67.9391 63.449C67.9161 63.7316 67.8666 64.0227 67.7682 64.2869C66.8973 66.6442 66.0833 69.0293 64.6286 71.1114C64.5267 71.2579 64.4268 71.4099 64.3503 71.5708C63.7528 72.8245 62.8457 73.8243 61.8529 74.7615C61.461 75.1321 61.078 75.4703 60.5495 75.6566C60.1973 75.7803 59.9069 76.0852 59.587 76.3057C59.3843 76.4458 59.1884 76.6688 58.9694 76.6996C58.1309 76.8168 57.3457 77.2211 56.4685 77.1387C56.0845 77.1024 55.6902 77.1824 55.3008 77.2047C55.0882 77.2167 54.8477 77.2872 54.668 77.2122C53.9377 76.9072 53.2035 77.0329 52.4619 77.1044C52.145 77.1352 51.8213 77.1273 51.5039 77.1029C50.6712 77.0384 49.9135 76.8163 49.3772 76.0827C49.2131 75.8592 48.9383 75.7221 48.735 75.5235C48.5102 75.3029 48.2977 75.066 48.0983 74.8197C47.5801 74.1784 47.3759 73.4463 47.4469 72.6139C47.4856 72.152 47.4101 71.6861 47.6453 71.2455C47.7417 71.0647 47.7716 70.8278 47.7682 70.6167C47.7638 70.2164 47.9538 69.9367 48.2222 69.6824C48.3775 69.5349 48.5205 69.3745 48.6724 69.2225C49.0441 68.85 49.2444 68.4079 49.2248 67.869C49.2077 67.4016 49.2317 66.9303 49.1793 66.4669C49.148 66.1942 49.0617 65.8848 48.8952 65.6791C48.2188 64.8373 46.8973 64.2874 45.7933 64.3277C44.7334 64.3659 43.8111 64.8318 42.8839 65.2828C42.5974 65.4224 42.327 65.6185 42.0258 65.698C41.3783 65.8684 40.8914 66.2618 40.4143 66.7043C39.9618 67.1235 39.662 67.653 39.2888 68.1293C38.4561 69.1917 38.7162 70.3684 38.8235 71.54C39.3627 72.7519 39.8364 74.0001 40.645 75.0685C41.343 75.9908 42.1267 76.8064 43.2062 77.2852C44.1471 77.7029 45.0743 78.1549 46.0015 78.6054C46.2224 78.7132 46.4482 78.8418 46.6216 79.0132C47.175 79.559 47.849 79.8541 48.5729 80.0686C49.0142 80.1998 49.4458 80.3711 49.8915 80.4868C50.7809 80.7188 51.6758 80.9284 52.5702 81.138C52.7063 81.1698 52.8528 81.1579 52.9948 81.1613C55.1583 81.214 57.3232 81.2373 59.4857 81.3302C60.5475 81.3759 61.5159 81.0933 62.4685 80.6984C62.999 80.4779 63.5314 80.3214 64.1074 80.2827C64.4542 80.2594 64.8206 80.1923 65.1345 80.0483C66.3958 79.4686 67.6565 78.8781 68.5489 77.7302C68.7238 77.5052 68.954 77.3259 69.145 77.1138C69.4085 76.8223 69.6661 76.5258 69.9125 76.2203C70.2245 75.8324 70.4968 75.4082 70.8338 75.0447C71.2075 74.6418 71.4843 74.2018 71.6498 73.6743C72.0054 72.5443 72.3997 71.4268 72.7372 70.2914C72.8782 69.815 72.9777 69.3084 72.9865 68.8137C73.0159 67.2323 72.9894 65.6474 72.9914 64.0634Z" fill="#F74070"/>
<path fill-rule="evenodd" clip-rule="evenodd" d="M68.164 81.8563C67.4969 82.4915 66.8616 83.0444 66.0358 83.3255C65.6665 83.4511 65.3084 83.6111 64.945 83.7556C63.623 84.2806 62.278 84.6213 60.8405 84.7386C59.6777 84.8334 58.5164 84.9611 57.3467 84.9953C56.0958 85.0326 54.8703 84.8448 53.6512 84.599C52.7475 84.4167 51.8536 84.1872 50.9514 83.9965C49.8748 83.769 48.8203 83.4839 47.7819 83.099C46.8548 82.7543 45.8825 82.5144 44.9147 82.3038C43.36 81.966 42.1316 81.0988 41.0154 80.0106C40.5569 79.5636 40.0578 79.1588 39.5935 78.7167C39.2849 78.4227 38.9998 78.1018 38.7148 77.7839C38.6202 77.6786 38.5766 77.5242 38.4767 77.4283C37.6578 76.648 37.4717 75.5548 37.0906 74.559C37.0166 74.3643 36.9965 74.1373 37.0005 73.9262C37.0024 73.803 37.0739 73.6058 37.1616 73.5735C37.3845 73.4921 37.43 73.6903 37.4937 73.8681C37.8214 74.78 38.2651 75.6164 38.8803 76.3793C39.4691 77.1099 40.0681 77.7984 40.8748 78.2911C41.1422 78.4545 41.3641 78.7083 41.5776 78.9472C42.1585 79.5964 42.8737 80.0677 43.6044 80.5078C43.9346 80.706 44.3142 80.8336 44.6844 80.9449C45.2271 81.1088 45.7811 81.2374 46.3336 81.367C47.2329 81.5771 48.1106 81.8439 48.9785 82.1687C49.7044 82.4399 50.4812 82.5849 51.2434 82.7473C52.7 83.0568 54.1601 83.3483 55.6227 83.625C56.0375 83.7035 56.4671 83.7198 56.8912 83.7352C57.4579 83.7546 58.0271 83.7283 58.5943 83.7526C59.9094 83.8078 61.1971 83.5261 62.4955 83.4422C63.8214 83.3563 64.919 82.6768 66.144 82.3495C66.5256 82.2477 66.8332 81.8667 67.18 81.6208C67.5267 81.3745 67.8358 81.4122 68.164 81.8563Z" fill="#080D26"/>
<path fill-rule="evenodd" clip-rule="evenodd" d="M57.3423 55.7092C58.3772 55.5989 59.3201 55.9138 60.2639 56.2337C61.5237 56.6598 62.6282 57.3418 63.5931 58.2671C63.8233 58.4886 64.0775 58.6927 64.3479 58.8611C65.3946 59.5138 65.7085 60.5439 65.7869 61.6922C65.8153 62.1219 65.8559 62.5674 65.7786 62.9841C65.5258 64.3495 65.0698 65.619 63.8532 66.4366C63.7782 66.4872 63.6029 66.5046 63.5583 66.4564C63.4775 66.3685 63.3976 66.2017 63.427 66.1013C63.5069 65.8286 63.6509 65.5758 63.7596 65.3111C64.03 64.6475 64.3356 63.9954 64.5531 63.3144C64.8739 62.3106 64.6633 61.3227 64.2852 60.3775C64.2004 60.1644 63.9639 60.0015 63.7723 59.8465C63.0274 59.2416 62.301 58.6058 61.5105 58.0674C60.9898 57.7133 60.3859 57.4684 59.7947 57.2389C58.3287 56.6702 56.8299 56.5863 55.3155 57.0428C54.6023 57.2578 53.8916 57.4798 53.1819 57.7048C52.648 57.8732 52.047 57.7888 51.5621 58.1618C51.5019 58.208 51.2668 58.125 51.206 58.0366C51.1443 57.9467 51.1551 57.753 51.2095 57.6437C51.3971 57.2663 51.7345 57.0333 52.1293 56.9817C53.0222 56.8639 53.8191 56.4591 54.6586 56.183C55.5369 55.8939 56.4131 55.5964 57.3423 55.7092Z" fill="#080D26"/>
<path fill-rule="evenodd" clip-rule="evenodd" d="M52.7062 31.0181C52.4632 30.7415 52.5499 30.5482 52.7522 30.3401C53.6598 29.4039 54.8094 29.2355 55.9976 29.388C57.5591 29.5886 59.0417 30.0461 60.2109 31.2217C60.4092 31.4214 60.6634 31.566 60.8976 31.7269C61.5294 32.16 62.0207 32.7327 62.3513 33.4146C62.6461 34.0231 62.8592 34.6752 63.0767 35.3184C63.2481 35.826 63.3975 36.3441 63.5102 36.8681C63.7781 38.1187 63.6938 39.2999 62.7412 40.2719C62.6662 40.3479 62.5972 40.4487 62.5056 40.4844C62.3851 40.5316 62.2377 40.557 62.1167 40.5287C62.0579 40.5143 61.9947 40.3523 62.0011 40.2619C62.0148 40.0494 62.0339 39.8254 62.1123 39.6311C62.5457 38.5444 62.461 37.48 62.1324 36.3749C61.9281 35.6889 61.7567 34.9906 61.4785 34.333C61.3124 33.9426 61.1214 33.5174 60.8231 33.2393C60.0703 32.5375 59.3096 31.8098 58.4422 31.2784C57.3157 30.589 56.0471 30.2219 54.7011 30.209C54.3308 30.205 54.0027 30.2706 53.7 30.4862C53.387 30.7097 53.0774 30.9421 52.7062 31.0181Z" fill="#080D26"/>
<path fill-rule="evenodd" clip-rule="evenodd" d="M40.6062 34.0187C40.6062 34.2327 40.6562 34.4185 40.5979 34.5566C40.1688 35.5753 40.3525 36.6223 40.5332 37.6321C40.7159 38.6463 40.9995 39.6501 41.6686 40.5009C42.0408 40.9738 42.2671 41.5604 42.6026 42.0665C42.9166 42.5413 43.2688 42.9933 43.6361 43.4269C44.2724 44.1784 45.0649 44.5276 46.0724 44.4804C46.9173 44.4406 47.7681 44.5559 48.6169 44.5911C48.9945 44.6065 49.3731 44.5936 49.8536 44.5936C49.7522 44.8166 49.7209 44.9532 49.6406 45.0481C49.4157 45.3133 49.0944 45.3744 48.7731 45.3878C47.5707 45.4385 46.3658 45.5309 45.1658 45.4996C44.4482 45.4807 43.8266 45.0729 43.2918 44.5787C42.6599 43.9941 42.1153 43.3395 41.6955 42.5771C41.2464 41.7615 40.7732 40.9609 40.3182 40.1488C40.2139 39.963 40.1159 39.7658 40.0601 39.5612C39.7079 38.2738 39.4851 36.9745 39.6482 35.626C39.7162 35.0687 39.8847 34.5794 40.2678 34.1761C40.3339 34.1071 40.4495 34.0887 40.6062 34.0187Z" fill="#080D26"/>
<path fill-rule="evenodd" clip-rule="evenodd" d="M57.4735 44.7435C57.5273 45.1657 57.3706 45.4458 57.1747 45.7066C56.7412 46.2828 54.0532 48.566 53.3537 48.9395C52.0685 49.6259 50.7926 50.3312 49.4843 50.9695C48.6918 51.3559 47.8288 51.5516 46.8203 51.5735C46.9472 51.3425 47.0001 51.1801 47.1068 51.0718C47.2278 50.9471 47.387 50.8468 47.5477 50.7778C49.2438 50.0427 50.7656 48.9659 52.4535 48.2144C53.173 47.894 53.7921 47.4276 54.3671 46.8753C55.0587 46.2097 55.8072 45.6033 56.5482 44.9929C56.7872 44.7952 57.0679 44.6198 57.4735 44.7435Z" fill="#080D26"/>
<path fill-rule="evenodd" clip-rule="evenodd" d="M63.6868 77.4418C63.4752 77.4418 63.2572 77.4736 63.0554 77.4289C62.9467 77.405 62.8066 77.261 62.788 77.1517C62.7689 77.0415 62.8487 76.8478 62.9428 76.7946C63.3116 76.5855 63.702 76.4156 64.086 76.2354C64.2785 76.1445 64.5155 76.1072 64.663 75.9696C65.5162 75.1739 66.5026 74.5069 67.062 73.4221C67.3892 72.7864 67.7605 72.1739 68.0876 71.5382C68.6298 70.4842 69.0785 69.3895 69.3107 68.2198C69.5056 67.2349 69.6599 66.2415 69.8318 65.2516C69.844 65.1811 69.8465 65.1086 69.8617 65.0386C69.9391 64.6919 70.1776 64.4376 70.3995 64.4604C70.617 64.4828 70.8501 64.7485 70.8863 65.0977C70.9275 65.4886 70.9662 65.8909 70.9231 66.2788C70.759 67.7395 70.6326 69.2077 70.0762 70.5945C69.7691 71.3604 69.4821 72.1287 69.0388 72.8311C68.8116 73.1926 68.6367 73.5895 68.4565 73.9789C68.1038 74.7413 67.6189 75.392 66.9488 75.8961C66.8352 75.9815 66.7113 76.061 66.6197 76.1673C65.8414 77.0708 64.854 77.4577 63.6868 77.4418Z" fill="white"/>
<path fill-rule="evenodd" clip-rule="evenodd" d="M68.0521 39.8141C68.0854 40.7618 67.959 41.4949 67.6416 42.1972C67.2429 43.0788 66.8565 43.9659 66.4842 44.8589C65.6673 46.8184 64.2214 48.1192 62.3337 48.9606C61.8796 49.1627 61.4182 49.348 60.9568 49.5317C60.8275 49.5834 60.685 49.6266 60.5498 49.6251C60.4587 49.6241 60.3098 49.5531 60.2922 49.4851C60.2594 49.3624 60.2682 49.1965 60.3289 49.0897C60.3946 48.9755 60.5322 48.8955 60.6522 48.823C61.1097 48.5483 61.573 48.2851 62.032 48.0144C63.4543 47.176 64.5118 46.0023 65.1804 44.474C65.5962 43.5218 66.0033 42.5652 66.4362 41.6215C66.6664 41.1204 66.759 40.5979 66.7909 40.057C66.8139 39.6621 66.8065 39.2642 66.8511 38.8724C66.8913 38.5187 66.974 38.1681 67.0573 37.8209C67.1024 37.6341 67.2454 37.4707 67.4325 37.5268C67.5736 37.5691 67.7244 37.725 67.7837 37.8681C67.8777 38.095 67.9193 38.3508 67.9482 38.5987C68.0006 39.0626 68.0291 39.5295 68.0521 39.8141Z" fill="white"/>
<path fill-rule="evenodd" clip-rule="evenodd" d="M44.9219 33.7744C44.9166 33.1441 45.0782 32.5555 45.4426 32.0499C45.734 31.6456 46.0759 31.277 46.4085 30.9045C46.5353 30.7625 46.7127 30.7163 46.8836 30.8409C47.0619 30.9716 47.0168 31.139 46.9478 31.3178C46.8175 31.651 46.7166 31.9967 46.5804 32.3275C46.2478 33.1341 46.288 33.9353 46.5594 34.7484C46.6603 35.0519 46.7518 35.3692 46.7798 35.6861C46.8155 36.0815 46.457 36.3343 46.0661 36.2518C45.7625 36.1873 45.5685 35.998 45.4196 35.7398C45.1507 35.2754 44.9156 34.349 44.9219 33.7744Z" fill="white"/>
<path fill-rule="evenodd" clip-rule="evenodd" d="M43.941 67.6895C44.0918 67.7118 44.2671 67.7277 44.4376 67.7654C44.9122 67.8707 45.1591 68.1692 45.188 68.6575C45.2139 69.0926 45.0273 69.3479 44.5806 69.5406C44.0957 69.7502 43.6226 69.7398 43.1597 69.4939C42.8311 69.3191 42.5896 69.0653 42.6107 68.6585C42.6302 68.2661 43.002 67.8454 43.3948 67.758C43.5643 67.7198 43.7416 67.7133 43.941 67.6895Z" fill="white"/>
<path fill-rule="evenodd" clip-rule="evenodd" d="M57.6435 52.021C57.5348 51.9907 57.3609 51.9644 57.2061 51.8934C56.9446 51.7732 56.8045 51.4861 56.8314 51.1931C56.8618 50.8722 57.0998 50.5911 57.4275 50.5404C58.053 50.4446 58.5937 50.6735 59.086 51.0401C59.2182 51.1384 59.203 51.4096 59.0639 51.509C58.6574 51.8 58.2127 51.9902 57.6435 52.021Z" fill="white"/>
<path fill-rule="evenodd" clip-rule="evenodd" d="M48.3725 38.3529C48.4886 38.3877 48.7404 38.4254 48.9549 38.5362C49.2218 38.6742 49.3707 38.9295 49.3487 39.2459C49.3271 39.5569 49.1694 39.7997 48.8829 39.912C48.085 40.2239 47.6011 39.8489 47.4997 39.243C47.4032 38.6747 47.6687 38.34 48.3725 38.3529Z" fill="white"/>
<path fill-rule="evenodd" clip-rule="evenodd" d="M44.1007 72.6625C44.0698 72.951 43.7328 73.1934 43.3866 73.1765C43.0084 73.1577 42.7312 72.8159 42.7885 72.4399C42.839 72.1146 43.1671 71.8588 43.4772 71.9035C43.8254 71.9537 44.1355 72.3317 44.1007 72.6625Z" fill="white"/>
</svg>
