<svg width="68" height="70" viewBox="0 0 68 70" fill="none" xmlns="http://www.w3.org/2000/svg">
<path d="M67.7469 0.906345C67.7145 0.675095 67.5635 0.583178 67.3954 0.580276C67.2817 0.391599 67.0879 0.24356 66.8529 0.219371C62.737 -0.208295 57.8924 0.0558497 53.7594 0.444813C50.6217 0.739921 47.4935 1.8981 45.9327 4.80275C44.5219 7.42776 46.1018 10.5646 47.8612 12.493C49.3551 14.1311 51.5138 14.3798 53.5817 14.1292C51.1098 16.3565 48.7514 18.7241 46.3816 21.0628C42.0356 16.7977 36.4326 14.0469 30.4312 13.2661C27.2715 12.8549 23.6791 13.4025 20.7496 14.6565C20.1268 14.9235 19.5308 15.2157 18.9377 15.5147C19.2194 15.0058 19.4066 14.4455 19.4305 13.8311C19.5623 10.464 17.1505 8.70399 14.329 7.43744C7.71344 4.46797 1.96712 8.68947 0.290791 15.3183C-0.560267 18.6854 0.529584 21.8745 2.6109 24.2673C3.85072 27.4777 4.70655 30.7104 5.37326 34.1433C6.21667 38.4877 6.21573 42.9124 7.51763 47.16C5.85659 48.4372 4.28342 49.7792 2.99489 51.278C2.63861 51.6921 2.69115 52.2891 3.16205 52.592C5.98171 54.4062 11.111 54.8793 14.3481 53.6873C14.4503 53.7724 14.5687 53.8256 14.6929 53.8546C14.0128 57.2363 14.1274 60.6509 15.6557 63.808C15.9136 64.3412 16.6911 64.2744 16.9662 63.808C17.5001 62.9053 18.0866 62.0848 18.7113 61.3011C22.809 62.7882 27.262 62.8182 31.416 64.1951C35.5872 65.5777 39.7012 67.0755 44.0252 67.8563C49.507 71.477 57.2152 70.7542 59.2077 63.8167C60.0454 60.8995 61.5526 55.8169 59.5334 53.0409C57.858 50.7371 56.2123 49.3738 53.8616 50.5301C55.1224 47.0855 55.5198 43.6449 55.3259 39.9681C54.9782 33.4099 51.9761 27.2262 47.6797 22.4241C50.0295 20.0275 52.3649 17.595 54.5684 15.0599C54.834 19.4624 57.6097 24.217 62.4772 22.1126C65.0648 20.9941 66.1652 16.8896 66.7469 14.4543C67.7842 10.1128 68.364 5.33588 67.7469 0.906345ZM6.36474 9.37258C8.1681 8.07797 10.5283 8.256 12.5418 8.80752C16.1915 9.80798 20.4583 15.4334 15.2048 17.506C15.0682 17.5602 14.9995 17.6695 14.9794 17.7846C14.7951 17.893 14.6165 18.0091 14.4302 18.1155C13.4741 18.6632 11.1893 19.6075 10.4892 18.1426C10.1224 17.3705 10.1558 15.5418 9.39741 15.0387C7.72013 13.9308 6.84518 17.3231 6.90345 18.3671C7.02953 20.6235 8.60462 21.6056 10.7662 21.2311C15.5745 20.398 19.3293 16.7087 24.0583 15.4305C30.4456 13.7034 37.041 16.2094 42.2448 19.8765C43.2783 20.6051 44.2487 21.4053 45.1533 22.2645C43.8552 23.5117 42.453 24.7386 41.1062 26.0148C35.4889 20.9118 27.9459 18.1088 20.6723 21.9181C18.2308 23.1962 16.138 24.9388 13.5629 25.9896C9.22069 27.7603 5.12014 24.9282 2.95858 21.3143C0.504748 17.2128 2.89078 11.8679 6.36474 9.37258ZM3.9959 25.619C6.10396 27.3742 8.80424 28.4482 11.5188 28.4153C15.2259 28.3708 18.6167 25.381 21.6398 23.5959C27.5858 20.0855 35.1001 22.9369 39.8129 27.2881C38.8759 28.246 37.9952 29.2407 37.2464 30.3069C37.2426 30.3127 37.2426 30.3185 37.2387 30.3234C34.4602 32.9126 31.5001 35.3392 28.8571 38.0736C27.4263 39.554 25.9534 40.9947 24.47 42.4228C21.8996 42.1132 19.3971 41.5423 16.8334 41.1582C16.1476 41.0556 15.3634 41.2375 14.8218 41.6894C12.9764 43.2278 10.8521 44.6792 8.79087 46.1973C6.85664 39.3856 6.83753 32.0989 3.9959 25.619ZM8.56545 50.9674C10.6038 51.0458 12.8695 51.4715 15.0482 51.4812C14.8782 51.6505 14.7024 51.8131 14.5334 51.9834C14.4159 51.9543 14.2917 51.9437 14.1589 51.9795C11.5733 52.6742 7.63033 52.7574 4.94152 51.6205C7.38867 49.1145 10.7327 47.2345 13.3948 44.9859C15.5974 43.1253 15.9652 42.3551 19.1354 42.8998C20.5729 43.1466 21.9875 43.3381 23.4193 43.4301C22.8481 43.9748 22.2788 44.5215 21.7086 45.0662C19.9731 44.3163 17.6147 44.7314 15.8123 44.9927C15.4035 45.0517 15.5009 45.7513 15.9098 45.7203C16.8582 45.6497 17.802 45.6245 18.7523 45.6584C19.4458 45.6835 20.1268 45.8412 20.8117 45.9235C20.1708 46.5369 19.5279 47.1484 18.888 47.7628C16.3749 47.3903 13.6833 47.28 11.1673 47.3603C10.5723 47.3797 10.5694 48.294 11.1673 48.2969C13.3423 48.3105 15.5764 48.8301 17.7647 48.8465C17.31 49.2858 16.8525 49.7212 16.4007 50.1634C13.7902 50.2833 11.2141 50.2359 8.56736 50.2688C8.12034 50.2756 8.12321 50.95 8.56545 50.9674ZM16.4571 61.7839C15.5296 59.0776 15.67 56.2803 15.691 53.4105C15.9021 53.2499 16.1094 53.0796 16.3186 52.9151C16.4227 53.1657 16.5239 53.4173 16.6128 53.6728C17.034 54.889 17.225 56.1565 17.3225 57.4376C17.3444 57.7249 17.7934 57.8304 17.8507 57.5101C18.12 55.992 17.9901 53.7879 17.3263 52.1169C17.8249 51.7096 18.3197 51.2945 18.8116 50.8745C18.8803 50.8407 18.9348 50.7913 18.9768 50.7323C19.1058 50.622 19.2299 50.5049 19.3579 50.3937C19.356 50.8881 19.3618 51.3825 19.3952 51.8663C19.4745 53.01 19.7658 54.1294 19.89 55.2673C19.933 55.6621 20.4459 55.6582 20.4927 55.2673C20.6484 53.963 20.4994 52.6858 20.5299 51.3786C20.5481 50.593 20.8031 49.9128 20.6608 49.2364C21.1804 48.7701 21.6857 48.2834 22.1996 47.8093C22.2101 48.2118 22.2731 48.623 22.3295 49.0468C22.5119 50.4198 22.7297 51.7066 22.6437 53.098C22.6256 53.3883 23.086 53.5334 23.2054 53.2519C23.6218 52.2659 23.6209 51.2509 23.5922 50.1905C23.5607 49.0468 23.7374 47.7319 23.4785 46.624C23.6935 46.4198 23.916 46.2263 24.129 46.0202C24.598 49.3071 25.6353 53.2373 23.4155 54.8822C20.7229 56.8793 18.3407 59.0486 16.4571 61.7839ZM19.2051 60.6934C19.9119 59.8662 20.6703 59.0815 21.5013 58.319C22.8013 57.125 25.322 56.0694 26.1693 54.4062C26.8312 53.1048 26.4978 52.3598 26.303 50.8068C26.0374 48.6888 25.6095 46.7179 25.5608 44.6279C27.2276 42.9888 28.8686 41.3391 30.4943 39.7339C33.015 37.2444 35.4535 34.6968 38.1051 32.3465C39.2628 31.3209 40.4109 30.2585 41.174 28.9426C41.2256 28.8981 41.2782 28.8556 41.3288 28.811C44.244 31.9769 46.7847 36.2004 47.2451 40.3793C47.6778 44.3057 44.5487 48.6211 42.8657 51.9505C40.6812 56.2726 38.8683 61.9619 41.9267 65.9241C34.5442 63.4394 26.8054 62.2251 19.2051 60.6934ZM49.5729 54.2223C48.0752 56.4951 45.7809 60.1419 48.2261 62.6373C49.5041 63.9416 51.8815 64.196 52.4804 62.0761C52.5998 61.6542 52.5731 61.2749 52.4546 60.9247C51.8968 59.2672 49.3007 58.2494 50.5223 56.3239C53.4786 51.6631 58.1322 51.2374 59.0415 57.364C58.9918 58.6315 58.7922 59.87 58.4426 61.0795C57.9774 62.9421 57.1464 64.4892 55.9754 65.9918C53.2684 69.4664 46.991 67.7431 44.2946 65.4558C39.7566 61.6058 43.5992 55.1009 45.7235 51.0855C47.3894 47.938 49.0791 44.8234 49.4755 41.225C49.9196 37.1931 46.8038 32.5672 44.4904 29.6422C43.924 28.9252 43.3203 28.2305 42.6861 27.5619C44.009 26.276 45.2622 24.9069 46.4915 23.6404C53.9781 31.8841 55.9439 44.5544 49.5729 54.2223ZM64.5853 15.7905C63.9721 18.2017 61.7112 23.5465 58.1045 20.3293C56.452 18.8548 56.4148 15.9153 56.2065 13.8911C56.176 13.596 56.0337 13.389 55.8503 13.2545C55.8264 13.0164 55.664 12.7813 55.3784 12.7591C52.2827 12.5114 50.1049 12.4504 48.2242 9.50417C45.1533 4.69632 51.5405 2.68377 54.8473 2.36157C58.6193 1.99389 63.25 3.25754 66.7946 1.61848C66.2616 6.39053 65.7716 11.1229 64.5853 15.7905Z" fill="#FFD8E2"/>
<path d="M65.1392 3.47741C63.801 5.01488 62.2555 6.31529 60.7263 7.64957C59.029 9.12995 57.5408 10.86 55.9141 12.4187C55.6429 12.679 55.9896 13.1115 56.3048 12.9325C58.1206 11.9001 59.4254 10.1372 60.8696 8.65584C62.4313 7.05451 64.1114 5.6138 65.5031 3.84702C65.7075 3.58965 65.3627 3.221 65.1392 3.47741Z" fill="#FFD8E2"/>
<path d="M55.7803 9.36008C54.8308 9.22752 53.8833 9.35815 52.9319 9.43458C52.5852 9.46264 52.5852 9.95127 52.9319 9.97932C53.8833 10.0558 54.8308 10.1864 55.7803 10.0538C56.1212 10.0054 56.1212 9.40749 55.7803 9.36008Z" fill="#FFD8E2"/>
<path d="M59.047 7.66403C56.5292 7.60694 53.9158 7.84206 51.398 7.993C51.1898 8.00558 51.1907 8.30649 51.398 8.32004C53.9063 8.48356 56.6514 8.81834 59.1358 8.32778C59.516 8.25231 59.4119 7.67273 59.047 7.66403Z" fill="#FFD8E2"/>
<path d="M60.7363 6.08962C58.7476 6.02867 56.7541 6.29185 54.7703 6.3886C54.4904 6.40215 54.4961 6.80176 54.7703 6.82401C56.7618 6.9885 58.7524 6.68371 60.7363 6.50374C60.9951 6.48052 61.0037 6.09833 60.7363 6.08962Z" fill="#FFD8E2"/>
<path d="M61.0378 4.76308C60.2221 4.65665 59.4092 4.70406 58.5897 4.73018C58.1732 4.74373 58.1732 5.37071 58.5897 5.38426C59.4083 5.41038 60.2221 5.45876 61.0378 5.35136C61.4113 5.30202 61.4113 4.81146 61.0378 4.76308Z" fill="#FFD8E2"/>
<path d="M58.2809 12.6509C58.2599 12.4603 57.982 12.4496 57.9801 12.6509C57.9715 13.3282 57.9323 14.0597 58.0765 14.7234C58.1319 14.9798 58.4777 14.8956 58.4987 14.6654C58.5589 14.0026 58.3545 13.3079 58.2809 12.6509Z" fill="#FFD8E2"/>
<path d="M59.8009 11.6394C59.6844 11.264 59.1333 11.4178 59.2202 11.802C59.7322 14.0738 59.0846 16.3902 59.5965 18.6437C59.6978 19.0907 60.3377 18.9678 60.3568 18.5392C60.4591 16.2779 60.4753 13.8194 59.8009 11.6394Z" fill="#FFD8E2"/>
<path d="M61.6869 10.6949C61.5971 10.2344 60.9342 10.4376 61.0021 10.8865C61.2867 12.7694 60.513 14.9813 61.5064 16.7006C61.7184 17.0683 62.1865 16.8013 62.1358 16.4316C61.8732 14.5304 62.0547 12.573 61.6869 10.6949Z" fill="#FFD8E2"/>
<path d="M63.3376 8.84425C63.286 8.4756 62.69 8.56849 62.7033 8.93133C62.7368 9.83504 62.7769 10.7813 63.0004 11.6589C63.1036 12.0643 63.6394 11.9385 63.6767 11.566C63.7684 10.6575 63.4637 9.73925 63.3376 8.84425Z" fill="#FFD8E2"/>
<path d="M64.8359 7.76831C64.7758 7.4374 64.259 7.51965 64.2657 7.84668C64.2752 8.28693 64.2829 8.67299 64.4586 9.08034C64.5828 9.36867 64.9868 9.19645 65.0002 8.9323C65.0193 8.52882 64.9076 8.16211 64.8359 7.76831Z" fill="#FFD8E2"/>
<path d="M15.0574 11.8106C14.1749 10.2703 11.7258 9.39267 10.0275 9.76325C9.81546 9.8097 9.76675 10.1425 9.96638 10.2412C10.7114 10.6099 11.5462 10.7376 12.3075 11.0772C13.0822 11.4236 13.7546 11.9577 14.4691 12.4057C14.8416 12.6398 15.2714 12.1822 15.0574 11.8106Z" fill="#FFD8E2"/>
<path d="M13.8665 13.4326C13.6707 13.1743 13.473 12.9479 13.2399 12.7224C12.9285 12.4215 12.471 12.885 12.7681 13.2004C12.9906 13.4365 13.2141 13.6378 13.4691 13.8351C13.6955 14.0103 14.0403 13.6619 13.8665 13.4326Z" fill="#FFD8E2"/>
<path d="M56.267 55.6098C55.9126 55.2363 55.415 55.7791 55.7197 56.1642C56.694 57.4008 56.3921 58.7834 56.5803 60.2261C56.6452 60.7234 57.4218 60.9518 57.5307 60.3567C57.8335 58.708 57.4304 56.8377 56.267 55.6098Z" fill="#FFD8E2"/>
<path d="M55.5796 60.5925C55.4449 60.13 54.7849 60.3245 54.8737 60.789C54.9597 61.2369 54.8919 61.7198 54.783 62.159C54.7104 62.4522 55.0695 62.6757 55.2863 62.4561C55.8002 61.9375 55.7754 61.264 55.5796 60.5925Z" fill="#FFD8E2"/>
<path d="M40.7687 21.5322C40.7104 21.1462 40.06 21.1462 40.0007 21.5322C39.91 22.1292 39.7018 22.8617 39.994 23.4199C40.1497 23.718 40.6187 23.718 40.7744 23.4199C41.0677 22.8607 40.8594 22.1292 40.7687 21.5322Z" fill="#FFD8E2"/>
<path d="M42.0515 21.8677C41.9436 21.5668 41.4173 21.5852 41.4603 21.949C41.51 22.3689 41.3973 22.7753 41.4393 23.1885C41.4727 23.5213 41.8452 23.622 42.041 23.353C42.3553 22.9185 42.2197 22.338 42.0515 21.8677Z" fill="#FFD8E2"/>
<path d="M45.3322 26.289C45.3112 25.8255 44.6435 25.8255 44.6225 26.289C44.5929 26.9441 44.42 27.7704 44.6454 28.3964C44.7648 28.7273 45.1898 28.7273 45.3092 28.3964C45.5347 27.7694 45.3618 26.9441 45.3322 26.289Z" fill="#FFD8E2"/>
<path d="M46.7063 27.6828C46.6643 27.2203 46.0386 27.2203 45.9966 27.6828C45.9479 28.2169 45.8017 28.8197 45.9679 29.3393C46.0902 29.7234 46.6127 29.7234 46.7359 29.3393C46.9011 28.8197 46.755 28.2169 46.7063 27.6828Z" fill="#FFD8E2"/>
</svg>
