<svg width="72" height="70" viewBox="0 0 72 70" fill="none" xmlns="http://www.w3.org/2000/svg">
<path d="M50.6394 22.5762C49.1044 19.1854 45.8288 18.1899 42.3683 17.9147C38.9191 17.6395 36.5208 20.0908 34.8976 22.8258C27.8106 17.5759 17.3194 16.7171 16.2 27.9409C15.4184 35.7777 21.9959 43.5206 29.3297 47.1495C31.7233 48.909 34.4153 50.2566 37.2715 50.6599C37.9292 51.1353 39.1274 50.8098 39.1359 49.728C39.1631 46.1597 43.7467 42.1626 45.7396 39.419C47.2559 37.3322 48.4748 35.084 49.4881 32.7096C50.7408 29.7743 52.0488 25.6899 50.6394 22.5762ZM47.0936 32.5805C45.4609 36.3775 42.83 39.6145 40.2215 42.7585C38.6742 44.6224 37.4253 46.0525 37.0106 48.1697C36.9355 48.0824 36.8417 48.0093 36.7103 47.9799C29.2199 46.2992 22.5795 40.1251 19.7017 33.0104C17.9584 28.701 18.4529 21.9148 24.0555 21.1812C27.7242 20.701 31.7805 23.1522 34.4575 25.4336C35.0083 25.9034 35.9118 25.855 36.2675 25.1499C38.5044 20.7105 41.9892 19.0326 46.7173 21.2694C50.8965 23.2481 48.3594 29.6377 47.0936 32.5805Z" fill="#FFD8E2"/>
<path d="M71.9808 48.0072C71.8063 40.5129 72.0587 33.1639 71.4178 25.6905C71.3597 25.0177 70.5987 24.3335 69.9316 24.7937C64.83 20.2366 60.3844 15.5458 54.5453 11.8181C50.8165 9.43803 47.0567 7.21167 43.6798 4.31533C41.7159 2.63086 40.5787 0.786957 37.9749 0.183394C31.8375 -1.2382 23.9604 5.97229 19.4622 9.14668C12.7496 13.8831 6.08106 19.0941 0.918525 25.5653C0.551649 26.0255 1.12964 26.6481 1.57158 26.2258C6.68721 21.3413 11.968 16.8146 17.686 12.6561C21.9872 9.52723 34.2226 -1.24581 39.753 3.20879C44.3356 6.89944 48.4782 10.4212 53.5188 13.5956C58.5368 16.7557 62.2825 20.918 66.428 24.9294C65.6548 24.9854 64.8685 25.1335 64.0775 25.2455C60.8648 25.701 57.8969 26.315 54.6466 25.813C54.064 25.7228 53.5601 26.5893 54.2056 26.8702C56.283 27.7736 58.4421 27.8372 60.6799 27.6939C62.2122 27.5961 63.7378 27.3883 65.2682 27.2697C65.7111 27.2355 66.1399 27.2374 66.564 27.2374C65.6445 28.1741 64.8432 29.2189 63.9921 30.2913C61.5516 33.3641 58.7864 36.1599 55.9697 38.874C50.5303 44.1144 45.6023 50.9842 39.2697 55.1389C32.4117 59.639 22.293 48.0043 17.9975 44.0081C12.4165 38.8152 7.31961 33.1706 2.30251 27.431C4.11062 26.947 5.88684 26.855 7.78596 26.91C9.55184 26.9613 11.3956 27.3636 13.1333 26.9508C13.7104 26.8142 13.6916 25.9401 13.1333 25.793C11.2201 25.2872 9.05829 25.4135 7.09161 25.403C5.13243 25.3926 2.92274 25.5776 1.2094 26.6139C1.20564 26.6158 1.2047 26.6196 1.20095 26.6215C0.97951 26.6405 0.768395 26.7838 0.752444 27.0837C0.317072 34.9661 0.0477736 42.8864 0.045897 50.7811C0.0449587 55.2233 -0.51239 61.3548 2.28281 65.1812C4.64358 68.4125 10.1711 68.7561 13.6747 69.2154C21.2178 70.2052 28.7195 70.1815 36.2925 69.5722C43.4058 69 50.4402 67.7226 57.5404 67.0203C62.1709 66.562 66.2553 65.2951 69.1368 61.463C71.8701 57.8246 72.0822 52.3564 71.9808 48.0072ZM68.8741 57.4516C68.5739 58.4756 68.1451 59.342 67.6327 60.1002C64.2943 55.9655 60.132 52.6259 56.7597 48.5158C56.3534 48.0204 55.5859 48.6572 55.8965 49.1896C58.6447 53.9014 63.2696 57.1697 66.0977 61.8198C62.7348 64.6877 57.4109 64.9012 52.9643 65.2666C47.3879 65.724 41.8726 66.8268 36.2906 67.3183C30.4854 67.8289 24.6529 67.8555 18.8392 67.5148C15.1094 67.2965 8.04118 67.3364 4.58729 64.3717C5.73952 62.5667 6.75289 60.6782 7.94829 58.895C9.3426 56.8139 10.9527 54.8741 12.2767 52.7483C12.6163 52.2027 11.8544 51.6409 11.4134 52.0746C8.43995 54.9937 5.20094 58.8248 3.21643 62.6473C3.13292 62.4841 3.03627 62.3304 2.96871 62.1548C1.09117 57.3007 1.91219 50.4385 1.86715 45.3177C1.81648 39.5858 2.00321 33.8424 1.77238 28.1133C6.64217 34.6776 12.1331 40.7682 17.8643 46.5666C22.5107 51.2679 28.1405 57.9802 35.2895 58.3655C41.897 58.7223 46.0274 52.326 50.2075 48.0242C53.4569 44.68 56.6508 41.3158 60.0165 38.0882C63.1082 35.1236 65.5572 30.8094 68.9173 28.1333C69.0599 28.156 69.2016 28.1475 69.3376 28.1029C69.2701 37.757 71.6046 48.1467 68.8741 57.4516Z" fill="#FFD8E2"/>
<path d="M26.8245 36.3222C25.4396 34.7639 24.1963 33.404 23.456 31.4054C22.8414 29.7456 22.8095 27.9795 22.5552 26.2486C22.4736 25.6934 21.7267 25.9088 21.6695 26.37C21.1806 30.3378 22.3235 35.3124 25.9988 37.404C26.6903 37.7988 27.3378 36.8982 26.8245 36.3222Z" fill="#FFD8E2"/>
<path d="M31.1372 40.9788C30.4504 40.212 29.6078 39.6967 28.7567 39.1378C28.1018 38.7069 27.5576 39.7242 28.1572 40.175C28.9735 40.7881 29.7316 41.3812 30.6765 41.7779C31.1485 41.9762 31.4234 41.2986 31.1372 40.9788Z" fill="#FFD8E2"/>
<path d="M60.696 61.0005C59.2839 61.5376 58.1364 62.5825 56.6904 63.0712C55.9989 63.3047 56.2813 64.2982 56.9888 64.1644C58.5877 63.8627 60.2503 63.0608 61.2543 61.735C61.5161 61.3915 61.0836 60.8534 60.696 61.0005Z" fill="#FFD8E2"/>
<path d="M62.5979 62.2836C62.1062 62.3576 61.698 62.6983 61.2749 62.9393C60.7034 63.2658 61.2064 64.1171 61.7853 63.8229C62.262 63.5799 62.764 63.3531 63.0445 62.871C63.2378 62.5398 62.9225 62.2342 62.5979 62.2836Z" fill="#FFD8E2"/>
<path d="M8.7456 21.2119C8.24924 21.5763 7.83921 22.01 7.38413 22.4218C6.88402 22.8754 6.21875 23.0985 5.74021 23.5635C5.54974 23.7485 5.713 24.0114 5.93444 24.038C6.60064 24.1196 7.31656 23.6973 7.87392 23.3708C8.50915 22.9988 9.05619 22.5329 9.3921 21.8667C9.58914 21.4776 9.15939 20.9082 8.7456 21.2119Z" fill="#FFD8E2"/>
<path d="M10.5678 22.5132C10.215 22.8729 9.82091 23.1728 9.33299 23.3104C8.75688 23.4727 8.99989 24.341 9.57882 24.211C10.2901 24.0516 10.8868 23.69 11.2246 23.0247C11.4367 22.6062 10.9122 22.1612 10.5678 22.5132Z" fill="#FFD8E2"/>
</svg>
